<svg fill="none" viewBox="0 0 26 22"><defs/><g clip-path="url(#clip0)"><path fill="inherit" d="M9.6 13.67c.04.18.07.34.12.5l.25.86c.02.09.06.12.15.11h11.61c.32 0 .6.09.87.27.45.31.42.9-.1 1.18-.28.15-.58.2-.88.2H8.9c-.35 0-.26.05-.35-.25-.23-.8-.44-1.6-.65-2.4l-.57-2.05-.7-2.57-.73-2.71-.7-2.54-.64-2.32c-.03-.1-.08-.12-.17-.12l-2.2-.04c-.44-.01-.9-.02-1.33-.06-.41-.05-.67-.3-.8-.66-.1-.3-.08-.59.18-.82C.44.05.7 0 .99 0l3.99.02c.54 0 .92.32 1.05.83s.28 1.02.43 1.53c.12.43.25.85.35 1.29.04.15.1.22.27.22H22.36c.43 0 .86-.02 1.28 0 .48.03.9.21 1.18.62.21.31.23.66.1 1-.3.8-.63 1.59-.95 2.39l-.96 2.37-.94 2.36c-.08.2-.16.4-.26.6-.14.29-.4.41-.72.44H9.6zm7.56 6.19c0 1.21.97 2.13 2.19 2.14 1.22 0 2.2-.94 2.2-2.13a2.16 2.16 0 00-2.18-2.12 2.15 2.15 0 00-2.21 2.1zm-5.68-2.12a2.2 2.2 0 00-2.25 2.13c0 1.16.96 2.12 2.2 2.13 1.2 0 2.22-.97 2.18-2.12.06-1.16-1.02-2.12-2.13-2.14z"/></g><defs><clipPath id="clip0"><rect width="25" height="22" fill="inherit"/></clipPath></defs></svg>
