<svg fill="none" viewBox="0 0 20 20"><defs/><path fill="#434343" d="M10 20a10.01 10.01 0 010-20 10.01 10.01 0 010 20zm0-18.48a8.49 8.49 0 000 16.96 8.49 8.49 0 000-16.96zm2.9 11.74c-.81.98-1.6 1.7-2.37 2.2-.76.48-1.41.73-1.93.73-.57 0-.98-.15-1.24-.45-.26-.3-.4-.7-.4-1.21a5.91 5.91 0 01.2-1.1c.27-.9.55-1.75.86-2.57a354.52 354.52 0 00.94-2.54c.02-.07.08-.19.17-.34.19-.33.47-.59.86-.75.38-.17.74-.26 1.05-.26h.17c.24.06.37.14.37.26l-.04.2-.1.24-.87 2.28a49.43 49.43 0 00-1.3 3.88l-.08.3-.03.29c0 .26.1.4.28.4.23 0 .6-.2 1.15-.6.55-.4 1.17-1.01 1.88-1.85a.73.73 0 01.54-.23c.22 0 .34.1.34.3 0 .18-.16.45-.46.82zm-1.94-7.33c-.34 0-.63-.1-.86-.3a1 1 0 01-.35-.8c0-.22.05-.44.15-.64.1-.2.24-.4.42-.55.18-.16.38-.28.6-.38.2-.1.43-.14.65-.14.34 0 .63.1.86.28.23.19.35.47.35.84 0 .2-.05.41-.14.6-.1.2-.23.38-.4.54-.16.16-.36.3-.58.4-.23.1-.46.15-.7.15z"/></svg>