<svg fill="none" viewBox="0 0 83 104"><defs/><path fill="#FFB400" d="M41.88 27.52c-1.56-.05-3.12-.1-4.68-.13-.31 0-.5-.1-.62-.4a2.38 2.38 0 01-.07-1.57c.09-.33.16-.67.3-.98.15-.34.1-.58-.2-.78-.07-.03-.1-.11-.23-.26.74.13.88-.34.96-.88l.13.04c.04.14.06.29.13.41.06.12.16.26.27.3.2.07.35-.02.4-.26.05-.26.14-.52.2-.77h.16l.27.94c.53.1.58.07.69-.45.06-.3.16-.6.26-.96.37.3.42.62.42.95 0 .35.17.46.5.44.23-.01.35-.09.35-.32v-.08c-.05-.99-.03-1.41-1.28-1.34-.8.04-1.6.12-2.4.23-.17.03-.34.22-.47.36-.11.13-.17.3-.27.48-.02-.65.36-1.17.95-1.25.94-.11 1.88-.21 2.83-.25 1.4-.06 2.79-.01 4.17.23.44.07.77.26.93.69.14.38.26.77.39 1.16.09.27.02.5-.23.64-.29.17-.28.4-.17.69.13.35.24.73.34 1.1.18.63.02 1.22-.21 1.81-.1.22-.11.5-.08.74.18 1.48.4 2.97.6 4.45l.7 4.96c.23 1.54.47 3.07.66 4.6.13 1.06.2 2.12.28 3.18l.45 5.72c.07.9.18 1.8.75 2.55.33.44.7.87 1.03 1.3a10.05 10.05 0 012.06 4.84 9.56 9.56 0 010 3.32c-.07.37-.03.77-.03 1.16 0 9.19 0 18.38.02 27.57 0 .89.2 1.77.25 2.66.06 1.1.1 2.2.07 3.3-.04.9-.23 1.79-.32 2.68-.07.8-.5 1.35-1.15 1.75-.99.64-2.1.98-3.23 1.2a30.45 30.45 0 01-12.5.14c-1.17-.2-2.3-.52-3.38-1.04a3 3 0 01-1.77-2.44 16.98 16.98 0 01-.2-5.05c.61-4.14.29-8.3.33-12.46.07-6.04.03-12.08.02-18.12 0-.6-.06-1.22-.13-1.82-.12-.99-.04-1.96.1-2.94.19-1.2.53-2.33 1.15-3.36.53-.86 1.14-1.69 1.78-2.47.58-.69.8-1.5.88-2.33.23-2.68.37-5.36.61-8.03.12-1.4.37-2.78.56-4.17l.37-2.85c.19-1.28.4-2.56.58-3.85l.36-2.68c.08-.57.15-1.13.26-1.69.02-.12.2-.29.31-.3 1.35-.1 2.69-.17 4.03-.24h.75l.01-.07zm4.28 35.77l-.26.06-1.98 1.05c-.26.14-.44.17-.66-.12a2.83 2.83 0 00-2.3-1.2 2.97 2.97 0 00-3.07 2.96c-.02 1.5 0 3 0 4.5l.03.4c.45-.1.87.03 1.3.02 1.48-.06 2.96-.03 4.43-.01.1 0 .3.15.3.25.04.32.02.64.02.96-.04 1.63-.09 3.25-.1 4.88 0 .32-.16.27-.33.28-.23 0-.46.02-.46-.33v-2l-.02-.44c-.6 0-1.16.02-1.71 0-.34-.02-.43.12-.42.44.02.62 0 1.25.01 1.87 0 .35-.13.47-.47.47-.35 0-.46-.14-.46-.48l.01-3.27c0-.24-.14-.54.19-.7.02-.02 0-.16-.02-.23l-.28-.5h-.97c-.08 0-.16-.05-.24-.08l.11-.22.08-.15-.11-.09-.2.27c-.1.1-.2.21-.3.27-.1.05-.23.03-.37.04l-.02.45v5.47c0 .27.02.54-.04.8-.1.48-.04.57.46.57h4.87c.61 0 .61 0 .61.58 0 .02.04.03.13.08l.11-.68c.48.03.99.03 1.5.09.4.04.63-.12.63-.53v-6.43l-.02-.43h-1.65c-.33.01-.41-.16-.37-.45l.15-.77h1.6c.21.01.3-.06.3-.3-.02-.45-.02-.9 0-1.35 0-.3.01-.56-.4-.53-.09 0-.17-.1-.21-.13-.11.06-.18.14-.25.14-.42 0-.84 0-1.25-.03-.04 0-.09-.19-.09-.29.01-.14.07-.29.09-.43v-.54l-.25-.16.44-.22-.33-.05c.03-.06.04-.16.09-.2.4-.23.82-.46 1.24-.67.07-.03.19.05.26.07l.4-.42c.09-.1.23-.21.24-.33.02-.72.01-1.43.01-2.2zm-13.29.73c-.31.02-.58.02-.83.06-.57.08-.57.09-.57.65l-.02 17.59-.03 10.87c.3.03.54.21.56.63v-.45l2.03.35-.16.1-.5-.57c-.01 0-.2.03-.3-.04-.13-.1-.28-.3-.28-.44 0-.48.1-.96.1-1.43V64.62v-.6zm10.86 16.66l.13.56c.02.11.1.23.08.33-.04.25-.17.5-.17.75 0 .33.07.66.13.99.04.26.24.55-.12.76-.04.03-.05.19-.02.2.47.34.14.55-.11.78l.1.48.11-.22c.08.16.1.42.05.43-.22.06-.46.07-.7.05-.05 0-.12-.2-.12-.32-.01-.67-.02-1.33 0-2 0-.28-.07-.4-.37-.39-.46.02-.92.02-1.39 0-.32-.02-.4.13-.4.43.02.6-.01 1.22.01 1.83.02.39-.13.5-.5.5-.38 0-.43-.17-.43-.49l.01-4.18c0-.35-.07-.51-.46-.48-.42.03-.84.02-1.26 0-.33-.03-.42.1-.42.42.01 2.16.02 4.31 0 6.46 0 .39.13.46.47.46h4.75c.2 0 .42.1.6.13.17-.04.35-.12.52-.13.5-.02 1-.02 1.5 0 .35.02.45-.1.45-.45-.02-2.1 0-4.22 0-6.34 0-.58-.01-.58-.6-.57-.6.02-1.18 0-1.84 0zM34.47 63c-.52-.1-.95-.19-1.4-.26-.23-.03-.32-.16-.35-.39a7.84 7.84 0 01.8-4.67 9.22 9.22 0 012.83-3.3c.26-.2.36-.4.34-.73-.1-1.46-.24-2.92-.23-4.38.01-2.04.12-4.09.2-6.13l.28-6.46c.04-.89.14-1.77.19-2.66.02-.49 0-.97 0-1.46-.1.58-.16 1.15-.24 1.73l-.41 3.11-.3 2.66c-.13 1.1-.32 2.2-.4 3.31-.2 2.56-.33 5.12-.5 7.68a6.16 6.16 0 01-1.58 3.89 8.87 8.87 0 00-2.27 4.59 9.13 9.13 0 00-.03 3.48c.02.09.18.22.27.22.9-.06 1.8-.15 2.8-.23zm7.59 34.04h3.71c.27.01.4-.05.4-.36-.02-1.61.04-3.22-.02-4.83a2.62 2.62 0 00-3.85-2.32.79.79 0 01-.62-.01 2.6 2.6 0 00-3.8 2.3c.02 1.56 0 3.12 0 4.67 0 .55 0 .55.57.55h3.6zM31.2 94.01c-.06.47-.17.92-.17 1.38.02 1.28.08 2.57.13 3.85.04.91.37 1.65 1.25 2.03.39.17.75.37 1.14.54.24.1.5.17.75.25-.08-.14-.19-.21-.3-.28-.54-.4-1.11-.8-1.32-1.47a6.08 6.08 0 01-.26-1.72c-.01-1.33.05-2.65.1-3.98.02-.27-.04-.4-.32-.42-.31-.03-.62-.1-1-.18zm11.34-72.05l-.18.01-.24 1.19h.66l-.24-1.2zm5.4 59.76l.09-1.7-.11-.01c-.29.89-.3 1.28.02 1.71zm-4.01-59.28h-.17l-.06.78.38.07-.15-.85zm3.99 59.74c-.32.3-.34.33-.19.55.06.08.16.12.27.2l-.08-.75zm13.1 18.65c-.16.1-.28.26-.4.27-.75.06-1.5.08-2.23.12-.13.01-.26.13-.4.13l-3.7-.14c-.23 0-.45-.06-.67-.07-.24 0-.31-.1-.26-.35.36-1.8.48-3.6.4-5.43-.05-1.02-.2-2.03-.31-3.05-.02-.2-.05-.42-.05-.63 0-8.29-.02-16.58.01-24.86 0-.37 0-.76.07-1.18l.36.42.06-.02c-.06-.13-.09-.3-.18-.38-.3-.28-.36-.63-.34-1.02l.15-2.34c.11-1.46-.05-2.88-.42-4.3a7.37 7.37 0 01-.18-1.42 51.2 51.2 0 01.09-7.01c.07-.92.07-1.84.1-2.75l.17-3.55c.02-.4.04-.81.09-1.22.01-.17.1-.32.15-.48.03-.1.1-.21.08-.3-.13-.43-.07-.88-.07-1.32 0-.23.06-.46.1-.7h-.1c-.23 1.73-.48 3.45-.69 5.18a155.4 155.4 0 00-.57 5.3c-.15 1.76-.22 3.52-.4 5.29-.45-.58-1-1.06-.86-1.93.15-1.08.13-2.18.24-3.26.16-1.48.38-2.95.57-4.42.13-.92.23-1.84.37-2.76.18-1.31.4-2.62.59-3.93l.35-2.6c.03-.3.15-.41.43-.39.28.03.57.05.85.06a.6.6 0 00.31-.08c.31-.18.71-.14.87.07.42-.37.94-.08 1.34-.23l-1.31-.2h-1.1l.05-.35c-.17.12-.35.34-.57.4-.24.06-.61.08-.76-.06-.22-.2-.4-.57-.41-.88-.02-.42.13-.85.23-1.28.17-.67.18-.66-.22-1.2l.3-.06c.1-.02.2-.02.32-.03l.16-.67.12-.03c.06.4.12.8.64.75.16-.02.17-.04.38-.77.22.16.02.63.48.6.47-.02.16-.52.48-.66l.23.26.17-.25c.04.38.04.73.5.63.07-.01.2-.06.2-.09 0-.35.04-.73-.06-1.06-.07-.28-.38-.36-.68-.34l-2.13.14c-.43.02-.64.31-.85.7 0-.51.26-.93.69-.98.8-.1 1.58-.32 2.41-.18.47.08.98-.1 1.48-.08.7.03 1.41.14 2.12.19.63.04.9.46 1.09.99.05.15.08.3.14.45.1.3.14.56-.2.79-.1.08-.12.4-.08.59.05.33.2.65.27.99.12.56.02 1.1-.28 1.6-.05.1-.07.23-.05.35.15 1.04.3 2.09.47 3.13.2 1.41.43 2.83.63 4.25.2 1.35.36 2.7.54 4.06l.3 2.13-.4-.05v1.3h.45v.89l-.04-.01c.05.19.14.37.16.57.1 1.23.16 2.46.26 3.7.1 1.08.5 2.02 1.25 2.84a7.73 7.73 0 011.72 2.96c.43 1.43.7 2.88.37 4.39-.04.23-.03.47-.03.71v9.5c0 4.7-.03 9.41 0 14.12 0 1.09.24 2.17.26 3.25.03 1.25-.04 2.5-.1 3.74 0 .1.1.44-.25.26-.07.16-.21.33-.19.47.19.94.1 1.18-.7 1.7-1.08.69-2.3.94-3.53 1.18-.12.03-.26.03-.38.07-.24.09-.42.06-.48-.14zm.35-25.03c-.39.2-.72.39-1.06.53-.1.05-.3.01-.38-.06-.54-.5-1.27-.72-1.8-.47-.68.32-.94.89-.94 1.61v1.8c-.01.34.1.47.45.46 1.08-.02 2.16-.02 3.23 0 .4.01.54-.1.51-.51-.03-.54 0-.54-.55-.55-.11 0-.24.02-.35-.01-.08-.03-.19-.1-.22-.18-.15-.45.01-.83.43-1.04.15-.08.31-.14.45-.25.1-.07.2-.19.21-.3.04-.32.02-.65.02-1.03zm-4.18 6.48v1.43c-.01.3.08.43.4.43 1.15-.02 2.3-.01 3.43 0 .3 0 .36-.12.36-.38 0-.85 0-1.7.02-2.55.03-.75 0-.79-.73-.76h-.08c-.23-.02-.3.1-.29.32.02.55.04 1.1.04 1.66 0 .22.05.57-.28.55-.32-.01-.24-.34-.2-.57.07-.67-.02-.77-.68-.76h-.08c-.23-.02-.34.07-.33.32.02.25.03.51 0 .75-.03.13-.18.23-.27.35-.07-.12-.2-.23-.2-.35-.03-.63-.03-1.27-.01-1.9 0-.28-.08-.4-.36-.38h-.31c-.3-.03-.43.09-.42.4v1.44zm4.18-10.95c-.21-.01-.38-.01-.55-.03-.38-.06-.51.1-.5.49.03.58.03 1.17 0 1.75 0 .14-.16.27-.26.4-.08-.13-.2-.26-.24-.41a1.19 1.19 0 010-.48c.04-.4-.1-.55-.51-.52-.54.03-.54 0-.54.55v.4c0 .2.04.44-.25.45-.32.02-.24-.25-.24-.43V71.3h-.78c-.23-.01-.3.1-.3.3v3.08c0 .2.06.32.3.32h3.6c.23 0 .28-.1.28-.31v-1.36-2.01zm0 14.68v-.74c.03-.3-.07-.41-.4-.4H57.9c-.72 0-.74.02-.7.76v.08c.01.2.1.31.32.3h.95c.22-.01.31.09.3.3l.01 1.12c.01.26-.1.36-.35.36h-.87c-.24 0-.37.1-.36.36v.35c-.03.3.1.4.39.4 1.15-.02 2.31-.01 3.47-.01l.32-.03v-.69c.03-.27-.08-.39-.35-.37h-.8c-.29 0-.43-.1-.42-.42.02-.32.02-.64 0-.96 0-.3.09-.44.41-.42.36.03.73.01 1.16.01zm-5.11-44.16l-.1-1.85c-.41.38-.32 1.38.1 1.85zm9.54 47.17l.17 1.84c.37-.35.3-1.38-.17-1.84zm-7.67-58.25h-.16c-.05.25-.12.51-.13.77 0 .07.14.18.24.2.05.02.2-.13.19-.2-.03-.26-.1-.51-.14-.77zm-3.65 8.48h-.13v1.7l.26-.12-.13-1.58zM54 79.85h.12c.12-.13.32-.27.33-.42.01-.15-.16-.3-.26-.47h-.12l-.07.9zm2.02-46.9c-.33.31-.35.63-.11.86.05.05.15.03.23.04.01-.08.06-.18.02-.24-.04-.08-.15-.13-.2-.17l.05-.5zm-1.36.4c-.28.22-.33.86-.12 1.09l.12-1.09zM56.6 58l-.16.87.13.02c.03-.3.48-.58.03-.89zm-1.84 7.44l.12-.07-.67-.96-.08.06.63.97zm1.98-1.4c-.08-.24-.15-.42-.25-.66-.23.49-.19.6.25.65zM65.9 88h.15l.08-.62-.42.15.2.47zm-6.6-56.82h-.1l-.13.63.4-.06-.17-.57zm-3.57 7.28l.18.62c.22-.1.22-.1-.18-.62zm2.3 24.36l.07-.06-.77-.93-.09.07.79.92zm-1.08-.54l-.08.08.7.85.07-.06-.69-.87zm-.36 3c0 .23.02.42.03.68.33-.46.32-.55-.03-.68zm.54-1.62l.12-.1-.51-.57-.08.07.47.6zM21.19 40.55c-.04-.24-.11-.43-.08-.62l.62-4.09c0-.02.03-.04.07-.1l3.7-.2.01-.05-2.36-.07c-.23 0-.46.02-.68-.01-.3-.04-.72-.02-.87-.2a1.43 1.43 0 01-.23-1.33c.05-.19.1-.38.17-.57.15-.45.42-.92-.22-1.34.62.08.77-.3.81-.79l.11.04c.05.12.07.26.13.37.05.1.17.27.2.26.13-.05.28-.13.34-.24.1-.2.14-.44.2-.66h.14c.05.18.14.36.15.54.01.24.14.28.33.28.22 0 .33-.07.36-.31.03-.3.12-.57.18-.86h.2c.08.29.2.57.24.87.04.3.2.29.42.29.26 0 .25-.18.25-.36s0-.37-.02-.55c-.06-.39-.28-.6-.67-.58-.77.03-1.53.06-2.29.16-.22.03-.43.25-.62.4-.08.07-.13.18-.25.37.18-.85.39-1.07 1.22-1.18 1.9-.24 3.81-.25 5.71.06a1 1 0 01.82.66c.1.26.2.51.27.78.06.27.13.54-.2.73-.1.06-.14.28-.12.42.03.26.12.51.2.76.2.57.26 1.13-.04 1.7-.31.59-.07 1.2 0 1.8.1.9.28 1.8.41 2.7l.42 3 .55 4.14c.15 1.13.31 2.26.41 3.4.1 1.15.16 2.3.2 3.46.01.2-.13.42-.26.6A11.43 11.43 0 0029 59.28a13.37 13.37 0 00-.03 4c.11.8.04 1.62.04 2.43v20.4c0 .93-.04 1.87-.04 2.8 0 .8.07 1.6.02 2.4-.05.97-.23 1.94-.3 2.92-.06.98-.07 1.97-.08 2.95-.02 1.2.14 2.38.4 3.55.05.18.13.37-.18.4-1.1.07-2.18.24-3.27.21-1.45-.03-2.9-.13-4.33-.35-1.12-.17-2.21-.51-3.3-.84-.42-.13-.8-.4-1.17-.65-.64-.44-.74-1.18-.86-1.86-.32-1.98-.3-3.96.1-5.94.03-.2.02-.42.02-.64 0-4.45 0-8.91.02-13.37 0-.93.05-1.85.05-2.78 0-2.02-.03-4.04-.05-6.06 0-.9 0-1.79-.02-2.68-.02-.42-.13-.84-.13-1.26 0-2.36.6-4.51 2.23-6.27 1.05-1.12 1.23-2.5 1.32-3.93.15-2.17.3-4.35.5-6.52.13-1.33.38-2.65.57-3.97.1-.68.18-1.37.26-2.05.03-.27.3-.5.12-.8.37-.15.37-.37.14-.66l.17-.17zm-2.92 26.4c-.31.03-.55.07-.78.07-.31-.01-.41.12-.4.42l-.01 2.7c-.02 1.6-.06 3.19-.06 4.78 0 1.14.05 2.28.05 3.42L17 91.74c0 .22.05.34.29.38.44.06.87.16 1.31.24l.69.14c-.25-.18-.5-.3-.78-.4-.3-.1-.35-.28-.31-.58.05-.38.06-.77.06-1.15V73.38v-5.9-.53zm1.31-.84l.01-.04c-.2-.05-.42-.1-.63-.13-.77-.08-.8-.1-.8-.86v-.83a6.3 6.3 0 011.14-3.53c.57-.85 1.29-1.54 2.06-2.18.11-.1.21-.28.2-.43 0-.68-.09-1.35-.1-2.03-.04-1.34-.1-2.68-.07-4.02.07-2.2.21-4.38.33-6.57.07-1.3.16-2.6.21-3.9.03-.77 0-1.54 0-2.3h.1c-.08.6-.2 1.2-.26 1.8l-.61 5.21c-.04.3-.18.6-.27.89.03.17.1.37.08.56l-.2 2.42c-.16 1.93-.3 3.86-.44 5.8a4.66 4.66 0 01-1.12 2.9 8.1 8.1 0 00-2.25 5.12c-.03.73 0 1.47.02 2.18.13.04.17.06.21.06l2.4-.12zm5.8 19.42c-.3-.09-.55-.09-.64-.21-.23-.34 0-.9.38-1.05.77-.31.95-.75.64-1.59-.23.26-.35.1-.43-.19-.05.12-.08.17-.08.22.02.4-.33.44-.58.54-.09.04-.28-.12-.4-.22a1.5 1.5 0 00-1.67-.32c-.6.23-.9.71-.93 1.35-.02.71 0 1.43 0 2.15-.01.2.06.32.28.32h3.51c.13 0 .36-.1.37-.18.02-.27.07-.72-.08-.81-.26-.16-.22-.38-.31-.58-.04-.1-.12-.17-.18-.25l-.04.06.16.76zm-2.02 1.64c-.94-.02-1.78 1.01-1.75 2.13.02.64.26 1.19.76 1.6.88.74 1.83.6 2.71.13.05.8.1 1.56.13 2.32l.02.53v1.1c.06-.4.14-.79.15-1.18.02-.89 0-1.77.01-2.66 0-.24.07-.5.18-.7a2.3 2.3 0 00-.14-2.62c-.31-.4-.73-.66-1.29-.67 0 .53-.13.99.4 1.37.48.35.4 1.12-.04 1.52-.43.4-1.07.4-1.5 0-.43-.42-.5-1.18-.02-1.53.54-.4.38-.86.38-1.34zm2.46-5.12c.02-.19.04-.26.03-.34-.02-.41.16-.9-.45-1.06-.04 0-.09-.08-.09-.12 0-.38-.03-.76 0-1.13.02-.18.11-.4.24-.53.32-.35.41-.75.21-1.28l-.44.15c-1.06.45-2.12.91-3.19 1.34-.33.13-.48.27-.48.64 0 .4.08.64.47.79.95.36 1.87.76 2.8 1.15l.9.4zm-.02-6.15c-.34 0-.67-.02-1 0-.35.03-.54-.07-.48-.46v-.2c-.02-.8.19-.76-.8-.76-.27 0-.34.12-.33.37 0 .26.02.53-.01.8-.01.08-.15.16-.22.24-.08-.08-.17-.16-.23-.25-.03-.07 0-.16 0-.24 0-.57-.02-1.14 0-1.71.02-.34-.11-.46-.43-.42a.92.92 0 01-.24 0c-.3-.04-.42.07-.41.4v2.9c0 .32.1.43.4.43 1-.02 1.98 0 2.97-.02.94-.02.95-.04.78-1.08zm-.5-6c.01.28-.22.34-.54.33-.53-.02-1.05-.02-1.58 0-.29 0-.4-.12-.41-.4 0-.34-.04-.68-.06-1.05-.3 0-.56-.02-.82 0-.08.02-.2.16-.22.25-.04.32-.06.64-.06.95l.02 2.5c0 .23.08.31.27.28.87-.16.85.2.82-.81v-.12c.04-.46.13-.55.59-.56h1.93c.63 0 .64 0 .6-.63 0-.14-.1-.29-.18-.4-.1-.13-.24-.23-.35-.34zm-5.85 29.84l.05-.1c-.01-.02-.02-.05-.04-.06l-.22-.16c-.56-.41-1.1-.85-1.2-1.6a17.7 17.7 0 01-.11-4c.02-.25.15-.58.04-.73-.13-.17-.48-.16-.71-.27-.36-.15-.46.03-.48.33-.02.41-.05.83-.04 1.24.03 1.1.04 2.2.14 3.29.02.33.2.77.44.93.67.44 1.42.76 2.13 1.13zm7.08-1.02c-.1.19-.24.33-.23.47.01.53.06 1.07.12 1.6 0 .06.12.13.18.2.04-.08.1-.16.1-.23l-.03-1.84c0-.04-.07-.1-.14-.2zm-2.51-38.07l.2-.02-.14-2.2c-.07.35-.2.76-.23 1.18-.01.35.1.7.17 1.04zm-3 18.98h.13V76.6h-.12v3.04zm5.62-48.84h-.16l-.22.9.1.13c.15-.08.4-.16.41-.25.01-.25-.08-.52-.13-.78zm-2.57 30.28c-.2.18-.23 1.42 0 1.77v-1.77zm-2.9 13.55h-.13v1.56h.13v-1.56zm-.22 18.9l-.15 1.1c.4-.32.44-.73.15-1.1zm-.06 1.54c-.05.4-.2.82 0 1.2l.18-.03-.18-1.17zm2.94-38.2l.16.08c.06-.1.15-.18.18-.28.07-.35.01-.71-.1-.78 0 .13.01.28-.03.42-.05.2-.14.38-.21.56zm2.64 40.46v1.2c.26-.38.22-1.02 0-1.2zM21.2 73.26c-.2.27-.22.76 0 1.02v-1.02zm6.64-42.11h-.1c-.2.61-.2.63.19.6l-.09-.6zm-2.52 66.5c-.31.37-.28.64 0 .82v-.82zM20.98 92h-.1l.16 1.2h.08l-.14-1.2zm46-47.28c-.08.25.12.4.39.41.17.02.33.08.5.1 1.52.16 3.03.32 4.54.5 1.21.14 2.42.3 3.64.46.27.03.55.1.82.07a.6.6 0 00.42-.3c.09-.2-.02-.39-.28-.43-.18-.03-.36-.08-.54-.1l-3.9-.48-5.21-.6c-.11.09-.34.2-.39.37zm-57.9 1.07l4.48-.46c.48-.04.97-.04 1.45-.14.17-.03.4-.27.41-.42.01-.28-.23-.37-.51-.34-1.35.13-2.7.24-4.05.4-1.6.17-3.18.38-4.77.57-.25.04-.5.05-.73.14-.12.05-.26.27-.24.4.01.13.2.25.26.32 1.3-.17 2.5-.33 3.7-.47zM40.74 9.24c0 .92-.02 1.84 0 2.75.04.98.1 1.94.16 2.91.01.25.07.51.39.5.29-.03.37-.27.37-.53l-.01-.48-.07-4.38c-.02-.82-.07-1.63-.1-2.45 0-.21.03-.42.04-.63.02-.4.07-.82.04-1.22 0-.13-.25-.36-.35-.34-.15.03-.28.22-.38.37-.05.07-.02.2-.02.31v3.2h-.07zm33.28 21.6c-1.32.43-2.64.88-3.96 1.3l-3.75 1.2c-.24.07-.37.22-.3.46.07.26.28.34.53.26l2.6-.8 4.11-1.34c.74-.24 1.47-.47 2.2-.75.14-.05.29-.27.3-.43.02-.1-.2-.23-.3-.35l-1.43.45zM16.39 33.8a.62.62 0 00-.32-.43c-.44-.17-.9-.27-1.35-.41-1.46-.46-2.93-.91-4.38-1.4-1.06-.35-2.1-.74-3.14-1.13-.28-.1-.48 0-.53.23-.03.14.14.41.27.47.89.37 1.78.72 2.69 1.02 1.64.55 3.29 1.06 4.94 1.58.48.15.96.26 1.52.42.1-.11.31-.24.3-.35zm44.97-9.52l1.73-1.56c1.29-1.21 2.56-2.43 3.85-3.63l1.14-1.04c.2-.17.27-.37.08-.58-.2-.23-.4-.16-.59.01l-.26.24-4.73 4.42-1.79 1.66c-.1.1-.13.32-.1.46.03.1.2.17.32.27.14-.1.26-.17.35-.25zM55.95 8.55c-.19.06-.42.18-.5.34l-2.55 5.7c-.38.85-.78 1.68-1.17 2.52-.12.24-.1.45.14.58.25.13.42 0 .53-.24.03-.08.1-.16.13-.24l3.33-7.36.4-.97c-.11-.12-.25-.35-.31-.33zm-41.8 9.04c-.02.14 0 .35.08.47.18.22.42.4.63.58l6.23 5.65c.18.16.37.23.56.03.18-.2.15-.4-.05-.58-.31-.28-.6-.57-.92-.85l-5.85-5.3c-.1-.1-.24-.15-.38-.25-.12.09-.28.15-.3.25zm12.22-8.16c.35.75.73 1.5 1.06 2.25.56 1.25 1.1 2.52 1.62 3.79.27.67.83 1.22.9 2 .01.2.21.39.47.27.23-.1.3-.3.21-.57-.13-.4-.48-.66-.58-1.12-.14-.65-.46-1.25-.73-1.85-.76-1.73-1.53-3.44-2.3-5.16-.05-.14-.1-.3-.2-.38a.54.54 0 00-.41-.1c-.1.02-.17.19-.25.3l.2.57zM72.28 59.7c-1.13-.69-2.26-1.38-3.41-2.04a89.16 89.16 0 00-3.22-1.74c-.12-.06-.37.02-.5.12-.2.18-.05.37.1.5.13.12.3.2.47.29l3.82 2.1c.87.5 1.72 1.04 2.58 1.54.3.17.48.06.54-.4-.08-.08-.2-.26-.38-.37zm-1.52-7.96c0-.14-.14-.38-.28-.43-1.38-.52-2.79-.99-4.18-1.5-.3-.1-.44-.01-.53.21-.1.27.08.42.32.5.13.05.28.06.42.1l3 1.17.93.3c.1-.11.32-.23.32-.35zm-60.5-12.92c-.04.27.18.41.45.44l4.17.33c.25.02.44-.1.46-.37.02-.27-.15-.36-.4-.38l-4.16-.37c-.25-.05-.5.05-.53.35zm4.07 12.43c.65-.21 1.29-.44 1.93-.67.23-.09.47-.21.37-.51-.09-.28-.32-.31-.58-.22-1.4.49-2.8.96-4.2 1.48-.11.04-.24.35-.2.46.06.13.33.26.47.22.4-.1.8-.25 1.18-.41.15-.06.28-.18.44-.28.2-.02.4-.01.6-.07zM70.67 39.3c.4-.04.81-.09 1.2-.18.11-.03.24-.23.24-.34 0-.13-.15-.26-.27-.34-.06-.05-.2-.01-.3 0l-3.8.4c-.3.03-.67-.02-.67.42 0 .46.4.32.66.35l2.94-.3zM14.2 26.46c-.04.1.02.29.1.39.08.1.23.17.36.24 1.09.6 2.18 1.18 3.27 1.79.25.14.47.14.61-.1.15-.29-.03-.45-.26-.58l-3.17-1.74-.6-.32c-.11.1-.27.2-.31.32zm53.3-.27c-1.15.68-2.3 1.38-3.44 2.08-.22.13-.34.31-.17.55.16.23.36.21.59.07l3.4-2.05c.13-.08.23-.23.3-.3-.03-.39-.36-.54-.68-.35zm-44.59-9c.73 1.07 1.47 2.13 2.22 3.18.14.2.34.37.6.18.24-.2.16-.42 0-.63-.72-1.04-1.44-2.08-2.18-3.1-.08-.13-.24-.2-.3-.25-.45.01-.57.29-.34.62zm13.05-1.73l-.47-2.54c-.08-.43-.17-.85-.27-1.28-.05-.22-.22-.42-.45-.3-.13.06-.26.32-.25.48.06.52.16 1.04.26 1.56.15.77.3 1.53.48 2.3.03.12.26.31.37.3.15-.03.27-.22.37-.31l-.04-.21zm10.77.53c.14-.15.36-.28.4-.46.16-.55.26-1.13.36-1.7.13-.66.26-1.32.37-1.99.04-.24.04-.5-.3-.52-.31-.02-.4.18-.44.45-.1.53-.23 1.05-.33 1.58l-.42 2.28.36.36zm9.89 3.96c-.16.22-.18.42.04.59.24.17.44.04.58-.15.78-1.05 1.56-2.1 2.31-3.15.09-.12.07-.37 0-.52-.03-.08-.3-.14-.4-.09-.18.09-.35.25-.2.5.02.06-.03.15-.05.27l-.21-.24-2.07 2.79zM12.07 58.5c-.72.4-1.44.8-2.15 1.23a.7.7 0 00-.27.4c-.02.08.12.27.2.29.18.02.38 0 .53-.08.93-.51 1.84-1.05 2.77-1.58.64-.36.64-.36.49-1.14l-1.57.88zM41.6 2.12V.73c0-.29-.1-.53-.4-.52-.26 0-.39.23-.38.51l.04 1.79c.01.4.02.82.08 1.23.02.12.22.33.3.31.15-.02.3-.18.4-.3.05-.09.02-.24.02-.36V2.13l-.06-.01zM58.44 4c-.15-.07-.3-.2-.46-.2-.14 0-.36.12-.42.25-.44.92-.86 1.86-1.25 2.8-.05.11 0 .32.09.41.22.26.49.14.67-.27l.92-2.1.31-.72c.05-.05.1-.1.14-.17zM14.08 58.22l2.96-1.78c.22-.13.28-.34.14-.54-.13-.2-.32-.23-.55-.09-.77.48-1.55.93-2.32 1.4-.49.3-.5.36-.34 1 .03 0 .08.02.1 0zM24.17 4.33c.12.32.27.63.41.94.3.62.57 1.24.9 1.84.06.12.32.23.46.2.25-.05.3-.29.2-.51-.43-.94-.86-1.87-1.3-2.79-.06-.11-.2-.19-.26-.24-.33 0-.53.3-.41.56zM2.5 46.53l.79-.08c.28-.02.52-.15.49-.44-.03-.3-.28-.38-.56-.35l-1.56.18c-.46.05-.92.1-1.37.2-.12.03-.3.23-.29.33.02.14.18.29.31.38.08.05.23 0 .35-.02l1.84-.25v.06zm7.84-32.38c-.02.15-.01.38.08.46.76.7 1.53 1.38 2.32 2.03.1.08.38.04.5-.06.07-.06 0-.31-.02-.47-.01-.06-.1-.12-.16-.17l-2.08-1.82c-.1-.09-.22-.14-.35-.23-.12.1-.27.17-.29.26zm59.4 2.46l2.21-1.93c.2-.17.25-.4.08-.6-.18-.23-.38-.14-.58.03-.48.43-.97.84-1.46 1.26-.28.25-.56.48-.81.75a.46.46 0 00-.08.4c.03.1.18.18.3.28.13-.07.25-.11.33-.19zM1.77 29.23c-.05.32.25.37.46.45.85.3 1.71.57 2.56.88.26.1.46.08.56-.16.1-.28-.03-.48-.32-.57l-1.52-.53-1.48-.5c-.08.14-.23.27-.26.43zm4.23 33.7l1.15-.67c.42-.24.85-.48 1.26-.73.18-.12.35-.28.2-.53-.14-.22-.33-.27-.57-.13-.5.3-1 .58-1.5.86-.37.21-.75.4-1.09.65-.12.08-.2.3-.2.46 0 .1.2.19.3.29l.45-.2zm71.5-32.35l1.9-.61c.33-.1.66-.2.98-.32.24-.1.32-.32.21-.52-.06-.12-.31-.24-.43-.2-.96.28-1.9.59-2.84.91-.15.05-.25.22-.32.28 0 .4.21.56.5.46zm-.67 31.84c-.25-.18-.53-.33-.8-.5-.57-.37-1.13-.75-1.73-1.08-.11-.07-.37 0-.49.11-.06.06.01.34.1.46.1.14.29.22.44.31.73.47 1.45.94 2.2 1.39.27.16.53 0 .52-.41-.04-.06-.12-.2-.24-.28zm-9.26 3.8c-.03.14.02.35.11.44.46.45.94.88 1.42 1.31.2.18.42.32.64.07.24-.26.04-.47-.14-.64l-1.35-1.22c-.1-.08-.21-.14-.35-.23-.13.1-.3.17-.33.27zm-54.42 1.77l1.5-1.35c.2-.18.24-.38.03-.59-.19-.19-.38-.12-.55.05-.12.11-.2.25-.33.36-.4.35-.82.69-1.2 1.05-.09.07-.11.28-.07.38.04.11.2.18.3.26.14-.06.25-.1.32-.16zm9.46-52.45c-.4-.5-.79-1.02-1.2-1.5-.07-.08-.35-.09-.42-.02-.1.1-.19.37-.13.46.37.53.77 1.03 1.19 1.52.06.08.27.1.38.06.11-.05.18-.2.27-.3-.05-.1-.05-.17-.1-.22zm11.8-7.16c-.03-.11-.3-.24-.42-.2-.12.03-.3.28-.28.39.13.6.3 1.2.5 1.79.04.12.3.25.43.22.13-.02.23-.23.31-.33-.19-.68-.33-1.28-.53-1.87zm13.44 2.22c.14 0 .4-.16.42-.3.14-.58.23-1.18.28-1.79.01-.13-.18-.35-.32-.4-.1-.02-.35.17-.38.3-.13.54-.2 1.09-.3 1.64.02.24-.04.54.3.55zm25.97 42.14c0-.15-.14-.37-.28-.44-.49-.22-1-.38-1.5-.59-.28-.12-.48-.03-.58.22-.11.27.1.41.31.5l1.2.48.52.16c.1-.1.33-.2.33-.33zM10.1 52.6c.25-.08.49-.18.7-.32.08-.05.1-.28.06-.38-.05-.1-.23-.24-.32-.22-.62.18-1.24.38-1.86.61-.09.03-.17.28-.14.4s.2.22.29.3c.48-.13.88-.25 1.27-.39zm50.48-36.8c.28-.42.54-.87.83-1.3.14-.21.14-.43-.08-.52-.14-.06-.44 0-.53.1-.36.48-.67.98-.98 1.5-.15.25.06.56.44.55.07-.08.22-.18.32-.33zm12.72 22.4c-.27.03-.48.16-.43.45.06.3.3.37.58.33.3-.05.6-.07.9-.1.23-.02.48 0 .69-.08.14-.06.32-.27.31-.41 0-.13-.22-.26-.29-.32l-1.76.14zm-4.52-12.7c-.06.03-.05.35.03.45.07.1.31.13.43.08.37-.14.71-.34 1.06-.51.2-.1.41-.2.58-.33.08-.08.13-.26.12-.39-.02-.15-.12-.3-.17-.42-.81.44-1.44.76-2.05 1.12zm-57.3-.8c-.04.12 0 .33.07.38.55.36 1.1.7 1.68 1.01.1.05.35-.07.41-.17s0-.37-.1-.44c-.47-.33-.96-.62-1.45-.92-.09-.05-.2-.07-.35-.13-.09.09-.23.17-.26.28zM8.15 38.14h-.59c-.27-.01-.54.02-.54.36 0 .3.25.39.53.4.5.02 1 .08 1.5.06.16 0 .33-.2.5-.32-.13-.14-.23-.37-.38-.4-.33-.1-.67-.09-1.02-.11zm40.8-33.04c-.21-.07-.37.05-.42.3-.1.54-.25 1.07-.32 1.62-.01.13.18.3.28.45.16-.1.4-.19.44-.33.15-.53.23-1.08.36-1.74-.08-.07-.19-.24-.34-.3zM10.7 23.92c-.48-.31-.96-.63-1.47-.9-.1-.06-.38.02-.44.12-.07.1-.02.4.08.46.47.35.97.66 1.48.96.26.15.5-.03.5-.4-.03-.05-.06-.18-.15-.24zm8.37-11.9c.31.42.67.81 1 1.22.15.19.3.36.55.16.25-.2.22-.42.02-.65l-.96-1.15c-.08-.1-.2-.15-.27-.19-.36 0-.54.34-.34.6zm58.3 26.58c.22-.02.46.01.66-.06.17-.07.29-.25.43-.39-.15-.13-.31-.36-.47-.37-.52-.01-1.05.06-1.57.1-.27 0-.38.14-.36.4.03.28.2.35.44.34.29 0 .58-.03.87-.05a.1.1 0 000 .03zM33.57 7.21c.04.11.28.24.4.21.11-.03.22-.22.27-.36.04-.1 0-.24-.03-.35-.11-.44-.21-.88-.37-1.3-.05-.14-.26-.3-.41-.3-.12 0-.26.2-.38.3.18.67.33 1.25.52 1.8zM5.54 38.64l.31.02c.21.01.44.04.48-.27.04-.3-.14-.44-.4-.47-.49-.07-.97-.11-1.45-.16-.26-.03-.5.06-.53.34-.03.3.2.4.46.44l1.13.13v-.03zm69 14.28c0 .16.1.42.24.47.51.22 1.05.4 1.6.54.12.03.35-.12.41-.25.05-.1-.04-.38-.14-.42-.56-.23-1.13-.4-1.78-.63-.1.09-.32.18-.32.29zM63.06 11.38a.47.47 0 00-.4.14c-.35.45-.68.9-.97 1.38-.07.11 0 .4.11.5.07.07.38.03.46-.07.35-.42.66-.88.98-1.33.05-.07.06-.17.1-.33-.08-.1-.17-.26-.28-.29zm8.98 13.19c.51-.29 1.01-.6 1.5-.93.23-.15.27-.4.03-.56-.12-.08-.37-.08-.5-.01-.45.24-.88.52-1.3.8-.11.08-.17.22-.2.27 0 .37.23.56.47.43zM5.79 53.19c-.11.04-.23.32-.19.43.05.12.29.26.41.24.52-.1 1.04-.24 1.54-.43.11-.04.14-.34.16-.53 0-.07-.15-.15-.23-.24-.6.19-1.16.33-1.7.53zm74.58-6.91c.1.13.2.35.33.38.43.08.88.12 1.33.11.13 0 .26-.22.39-.33-.12-.14-.22-.35-.37-.38-.35-.1-.72-.1-1.08-.16-.33-.05-.56.02-.6.4v-.02zm0 0c.09-.36-.07-.5-.43-.5-.27 0-.55-.09-.82-.05-.19.02-.45.15-.5.3-.09.25.11.42.37.44.32.04.63.04.95.09.23.03.37-.05.43-.28zM44.83 78.64c.32 0 .42-.1.42-.43v-4.74c0-.07.01-.15-.01-.2-.04-.08-.12-.15-.18-.22-.08.07-.18.13-.22.22-.04.1-.01.23-.01.35v4.15c0 .26-.06.4-.35.39a54.3 54.3 0 00-1.97 0c-.25 0-.32-.1-.32-.33.02-.7.02-1.38 0-2.07 0-.11-.13-.22-.2-.33-.07.12-.21.23-.21.34-.03.67-.03 1.33-.02 2 0 .29-.1.4-.39.39h-1.8c-.28 0-.38-.1-.38-.37v-2l-.01-2.43c0-.1-.17-.2-.26-.31-.08.1-.2.19-.2.28v4.06c0 .26.07.52.03.77-.06.37-.01.48.38.48H42c.95 0 1.9-.02 2.85 0zM43.06 65.8l.95-.43c.1.5-.23.6-.5.7-.4.16-.5.42-.48.83.03.76.02 1.52 0 2.27 0 .33.1.48.43.44.08-.02.17-.03.23 0 .1.07.19.17.28.25-.1.07-.19.18-.29.18-.76.02-1.53.02-2.29.02l-2.37-.03c-.22 0-.3-.1-.3-.31.01-1-.02-2 .01-2.99.02-.39.2-.76.27-1.15.06-.4.07-.82.45-1.04.37-.22.76-.48 1.16-.53a2.07 2.07 0 012.28 1.37c.04.14.1.26.17.42zm-3.85 1.78l-.01 1.63c0 .29.1.4.39.4a85.7 85.7 0 012.64 0c.3 0 .39-.09.38-.39-.01-.97.01-1.94-.01-2.9 0-.3-.07-.61-.18-.89a1.64 1.64 0 00-1.82-.98c-.83.16-1.36.75-1.38 1.58-.02.52-.01 1.03-.01 1.55zm5.03-1.9c1.02-.48 1.14-.5.96-.92-.81.23-1.09.5-.96.91zm.5 3.94c-.13 0-.28-.03-.4 0-.09.04-.14.16-.22.24.07.07.14.17.22.18.25.02.5.02.75 0 .05 0 .15-.12.15-.18-.01-.08-.08-.2-.15-.23-.1-.04-.23-.02-.35-.03v.02zm-5.02 17.12c-.47.08-.53-.17-.52-.57.02-1.34 0-2.68 0-4.02 0-.12.03-.25-.01-.36-.04-.09-.15-.2-.23-.2-.08 0-.19.12-.21.2-.03.15.02.3.02.44l-.03 4.42c0 .2-.07.46.28.5.6.07.75.02.88-.38-.06 0-.13-.04-.18-.03zm4 0c-.38 0-.76-.03-1.14 0-.33.02-.4-.12-.39-.42.03-.67.03-1.33.01-2 0-.12-.13-.24-.2-.36-.07.13-.22.25-.22.38a40.8 40.8 0 00-.01 2.03c0 .28-.08.38-.36.37-.43-.02-.86 0-1.28 0-.06.37.11.43.36.42.92 0 1.85.01 2.77-.01.18 0 .35-.16.53-.25l-.07-.17zm.62.42c.15-.02.32-.02.47 0 .34.04.46-.08.45-.44v-4.7c0-.1.02-.2-.02-.28-.02-.07-.11-.15-.18-.15-.07 0-.17.07-.2.13-.03.11-.02.24-.02.36v3.95c0 .67 0 .67-.68.7l-.16.04c-.02.26.05.41.34.39zm-2.37 3.75c.28-.21.5-.45.78-.6a1.7 1.7 0 012.5 1.53l.01 3.95c0 .32-.08.45-.42.45-1.9-.02-3.79-.02-5.68 0-.33 0-.44-.11-.44-.45.02-1.26.01-2.52.01-3.78 0-.72.26-1.3.9-1.67.74-.42 1.5-.3 2.1.32l.24.25zm2.87 2.73v-1.48-.07c-.03-.23-.04-.46-.1-.67-.1-.4-.84-.99-1.14-.96-.86.1-1.4.74-1.4 1.65.01 1.08 0 2.16-.01 3.23 0 .29.09.41.38.41h1.9c.3.01.38-.11.37-.4-.02-.57 0-1.14 0-1.71zm-5.64-.08v1.84c0 .25.1.36.35.35h1.85c.28.02.37-.1.37-.37l-.01-3.5c0-.8-.53-1.3-1.3-1.3-.75 0-1.24.48-1.26 1.27v1.71zm19.07-15.8c0 .2.01.38 0 .56 0 .27.17.3.37.29.2-.02.5.1.52-.25.02-.4.04-.8-.02-1.19-.03-.14-.3-.37-.42-.36-.16.03-.34.24-.43.41-.07.15-.01.36-.02.55zm-35.54 6.9v.55c0 .3.23.27.43.26.19 0 .46.1.48-.24.02-.38.05-.78-.02-1.15-.03-.16-.27-.37-.44-.4-.13 0-.34.22-.41.39-.07.17-.02.39-.02.59h-.02zm.68-4.81l.83.28-.06-.72c-.3.12-.53.2-.75.3l-.02.14zM40.7 68.77h.7c.22 0 .32-.08.31-.3 0-.82.02-1.63 0-2.44-.02-.55-.63-.9-1.13-.67-.47.21-.66.78-.49 1.3.14.44.2.9.3 1.4l-.34-.05c-.05.76-.05.76.65.76zm2.4 25.78c0 .1.06.3.11.3.2.05.43.07.62.01.08-.02.15-.26.14-.4-.01-.33-.12-.66-.11-1 0-.5.08-1 .12-1.51.02-.3-.16-.52-.43-.52-.3 0-.46.21-.45.54v2.58zm-2.16-1.3v-1.3c0-.3-.17-.5-.45-.52-.28 0-.45.2-.46.5 0 .3-.01.6.02.91.03.27.15.53.14.8 0 .29-.12.57-.16.86-.05.3.11.41.42.41.3 0 .51-.03.5-.42-.02-.4 0-.82 0-1.23z"/></svg>