<svg fill="none" viewBox="0 0 43 24"><defs/><path fill="#fff" d="M13.92 1.58c.33-.67.88-1.05 1.55-1.22.7-.17 1.42-.3 2.13-.32 1.41-.06 2.82-.05 4.23 0 .54 0 1.1.13 1.62.27.76.2 1.2.72 1.37 1.45.18.75.16 1.5.11 2.27l-.26 4.87c-.03.6.03 1.2.3 1.74.14.28.38.52.58.78.1.13.25.15.41.1a2.6 2.6 0 001.34-.98 28.86 28.86 0 004.4-7.48c.1-.28.25-.55.36-.83.36-.9 1.08-1.27 2.03-1.26.81 0 1.62.04 2.44.06h2.6c.77.02 1.54 0 2.29.1.8.1 1.07.53.93 1.31a10.75 10.75 0 01-1.84 3.7c-.96 1.3-1.98 2.56-2.96 3.83l-1.38 1.76c-.14.18-.25.38-.37.58-.57 1.07-.47 1.84.4 2.69.85.82 1.73 1.6 2.58 2.42a21.8 21.8 0 013.08 3.64c.18.26.32.55.43.84.28.74.03 1.39-.73 1.68-.48.18-1.01.31-1.53.33-1.23.03-2.47-.04-3.7-.03-.62 0-1.23.08-1.85.12-.18 0-.37-.02-.55-.06a6.33 6.33 0 01-3.1-1.72c-.8-.8-1.54-1.68-2.32-2.52a8.3 8.3 0 00-1-.93 1.85 1.85 0 00-.8-.34c-.62-.1-1.15.18-1.35.76-.16.47-.23.98-.3 1.47-.08.52-.07 1.04-.15 1.56-.15 1-.43 1.43-1.75 1.65-.97.16-1.96.08-2.94 0-1.53-.12-3.01-.4-4.45-.92-2.15-.8-3.95-2.1-5.48-3.73a46.98 46.98 0 01-5.63-7.55A81.79 81.79 0 01.7 4.26 6.92 6.92 0 010 1.88c-.02-.23.04-.4.26-.47.4-.13.8-.31 1.2-.32 1.86-.05 3.7-.05 5.54-.06.2 0 .4.03.59.05.53.07.95.32 1.19.8.29.57.58 1.13.84 1.7 1 2.2 2.21 4.26 3.62 6.22.3.42.6.85.94 1.24.2.23.49.42.77.56.44.2.83.08 1.04-.35.18-.36.33-.75.39-1.14.27-2.06.33-4.12.02-6.18-.14-.92-.59-1.6-1.52-1.91-.32-.13-.63-.3-.96-.44z"/></svg>