<svg xmlns="http://www.w3.org/2000/svg" fill="none" viewBox="0 0 66 61"><defs/><path fill="#FFB400" d="M40.85 47.58c-5.4 0-10.8.02-16.21 0-2.25-.01-4.2-.8-5.62-2.65a6.16 6.16 0 01-1.2-5.32 6.5 6.5 0 013.43-4.5c.23-.13.32-.28.24-.56-.48-1.6-.94-3.2-1.4-4.8l-1.55-5.43-1.29-4.37-1.31-4.61-1.29-4.38c-.33-1.13-.67-2.26-.98-3.4a3.92 3.92 0 00-3.21-3c-1.55-.32-3.12-.24-4.68-.23-1.2.02-2.39.07-3.59.08C1 4.42.06 3.57 0 2.33-.05 1.27.63.25 1.78.13 2.8 0 3.85.02 4.88.02 6.4 0 7.93-.03 9.43.03c1.68.06 3.32.31 4.81 1.19 1.2.7 2.12 1.71 2.65 3 .58 1.42.99 2.92 1.46 4.38.23.73.43 1.47.67 2.2.03.11.2.2.32.25.1.04.21.01.32.01h44.01c.93 0 1.66.33 2.11 1.19.3.57.28 1.17.1 1.77L64.3 19.4l-1.72 6.05c-.58 2.02-1.14 4.04-1.73 6.05-.27.91-.9 1.43-1.82 1.58-1.37.21-2.75.4-4.12.62-1.33.2-2.65.43-3.97.64-1.27.2-2.54.37-3.8.58-1.33.2-2.65.43-3.97.64l-3.81.58c-1.34.2-2.67.44-4 .65l-3.78.57c-1.33.2-2.66.43-4 .65-1.15.18-2.31.34-3.46.56a2.8 2.8 0 00-1.98 1.32 2.08 2.08 0 001.06 3.03c.56.2 1.17.33 1.76.33 6.59.02 13.17.02 19.76.02H57.3c.92 0 1.61.39 2.03 1.26.66 1.4-.33 3.05-1.85 3.05H40.85zM30.73 15.42l-.02.06c.33 2.05.68 4.1.98 6.15.07.43.23.5.62.48 2.48-.14 4.96-.27 7.44-.38.37-.02.46-.14.46-.5-.01-1.83 0-3.65 0-5.48l-.03-.33h-9.45zm-10.4-.03l.35 1.2 1.64 5.7c.08.27.2.32.44.3l6.3-.3c.55-.04.57-.06.47-.64-.3-1.95-.63-3.89-.94-5.83-.05-.33-.17-.44-.5-.44-2.43.02-4.85 0-7.27 0l-.48.01zm31.35.03l-.37-.03h-8.48c-.38-.01-.46.13-.46.48v5c0 .72 0 .72.72.7l7.32-.35c.25-.01.34-.11.37-.35l.52-3.12.38-2.33zM33.5 32.64c.7-.08 1.35-.14 2-.24 1.46-.22 2.92-.47 4.38-.7.24-.03.32-.12.32-.35v-5c0-.24-.08-.32-.32-.3l-3.07.16c-1.28.06-2.57.13-3.85.16-.36.01-.48.12-.42.48.11.62.2 1.25.3 1.87l.43 2.49.23 1.43zm-9.84-5.75l.34 1.16 1.58 5.5c.09.33.26.38.55.33l2.17-.37c.9-.14 1.8-.3 2.72-.42.3-.04.36-.2.31-.47l-.26-1.64c-.23-1.37-.46-2.74-.67-4.11-.04-.25-.13-.32-.36-.31-.98.06-1.97.1-2.95.14l-3.43.19zm30.2-11.48l-.92 5.61.2.02 6.1-.3c.23-.01.33-.09.4-.3l1.04-3.6.38-1.42h-7.2zm-4.58 14.8l.76-4.64h-.78c-2.14.1-4.3.22-6.45.3-.34.02-.44.12-.44.47v4.5l.03.46 6.88-1.08zm2.95-4.79l-.72 4.42c.39-.04.75-.07 1.1-.12 1.4-.23 2.8-.47 4.2-.68.26-.03.37-.12.43-.36l.59-1.97.42-1.6-6.02.31zM29.19 61a6.16 6.16 0 01-6.1-6.31 6.14 6.14 0 016.06-6.25 6.15 6.15 0 016.15 6.3A6.16 6.16 0 0129.2 61zm-1.87-6.27c-.07 1.05.88 1.97 1.88 1.95a1.94 1.94 0 001.9-1.98c0-1.07-.88-1.95-1.92-1.94-1.08.02-1.92.9-1.86 1.97zM50.42 61a6.16 6.16 0 01-5.97-6.4 6.1 6.1 0 1112.2.15A6.15 6.15 0 0150.42 61zm2.01-6.34a1.9 1.9 0 00-1.9-1.9c-1.1.02-1.9.9-1.89 2.08a1.94 1.94 0 001.97 1.84 1.91 1.91 0 001.82-2.02z"/></svg>