<svg fill="none" viewBox="0 0 28 27"><defs/><path fill="#fff" d="M19.72 7.22h7.81v.24l-.02 1.85v5.09c0 2.92 0 5.86-.04 8.78a3.98 3.98 0 01-1.16 2.9 2.4 2.4 0 01-1.78.73h-2.75l-17.05-.05c-.59 0-1.18-.02-1.77-.01-.96 0-1.66-.45-2.2-1.2a4.36 4.36 0 01-.76-2.6l.04-11.66.02-3.91V7.2h7.72a8.73 8.73 0 00-2.8 7.72 8.45 8.45 0 003.36 5.76 8.87 8.87 0 0011.94-1.01 8.81 8.81 0 00-.56-12.46zM.02 6.14v-.7C.03 4.73 0 4 .08 3.3.18 2.29.57 1.38 1.33.66 1.79.22 2.33 0 2.98 0h21.55c.9 0 1.56.44 2.07 1.14.5.68.8 1.46.84 2.3.05.9.01 1.79.01 2.7h-9.02a.68.68 0 01-.33-.09 8.79 8.79 0 00-8.7.02.52.52 0 01-.26.07H.02zm22.84-1.6h1c.26 0 .43-.15.43-.4V2c0-.24-.16-.39-.4-.4h-2.04c-.24.01-.4.18-.4.43v2.1c.01.25.18.4.43.4h.98z"/><path fill="#fff" d="M13.75 21.25a7.57 7.57 0 01-7.6-7.53 7.58 7.58 0 017.6-7.52 7.57 7.57 0 017.62 7.6 7.57 7.57 0 01-7.62 7.45zm0-13.77a6.3 6.3 0 00-6.3 6.23 6.27 6.27 0 006.3 6.25 6.26 6.26 0 006.3-6.23c0-3.45-2.82-6.24-6.3-6.25z"/></svg>