<svg fill="none" viewBox="0 0 57 51"><defs/><path fill="#fff" d="M15.07 16.39c-1.21 0-2.42.02-3.64 0a5.02 5.02 0 00-4.74 3.48c-.16.54-.25 1.1-.33 1.66-.03.24-.13.38-.34.47l-4.4 1.85c-.3.12-.53.05-.64-.23-.31-.83-.7-1.64-.87-2.5A5.31 5.31 0 013.5 15c1.7-.66 3.39-1.36 5.08-2.03l5.12-2.05 4.42-1.79 4.6-1.83 4.42-1.8 3.96-1.58 5.59-2.24c1.25-.5 2.48-1.08 3.77-1.46a4.89 4.89 0 013.76.4 5.75 5.75 0 012.76 3.48c.21.65.23.67-.4.94-1.46.63-2.92 1.23-4.38 1.84-1.41.6-2.83 1.18-4.24 1.77l-4.44 1.86-4.89 2.05-4.35 1.8c-1.43.6-2.86 1.22-4.3 1.8-.32.13-.68.22-1.01.22-1.3.02-2.6 0-3.91 0zm35.87 0c.57 0 .73-.26.52-.79-.4-1-.78-2.02-1.16-3.02l-1.05-2.7c-.1-.26-.27-.45-.59-.32-1.72.7-3.43 1.42-5.15 2.13l-5.34 2.23-3.8 1.58c-.24.1-.46.22-.39.54.08.3.32.34.57.35h16.39zM6.35 28.41c0-.67-.54-1.04-1.14-.79l-1.42.6c-.58.23-.76.7-.52 1.28l.34.86c.4 1.03.8 2.08 1.23 3.1.17.41.53.56.95.46.34-.08.56-.39.56-.8v-2.37-2.34zm23.08 15.01c-.17 0-.3.06-.42.18a.65.65 0 00-.17.47c0 .13.02.25.08.37.05.11.12.2.22.26s.2.1.3.1a.5.5 0 00.4-.2c.1-.12.16-.3.16-.51a.7.7 0 00-.16-.5.54.54 0 00-.41-.17zm12.83.57v-1.36L41.34 44h.92zm-8.25-.72a.46.46 0 00.48-.46.47.47 0 00-.48-.48.47.47 0 00-.48.46.47.47 0 00.48.48zM57 45.9c0 1.29-.53 2.38-1.35 3.35a4.85 4.85 0 01-2.74 1.63c-.67.14-1.37.11-2.05.11h-18.8c-6.52 0-13.04-.02-19.56.01a5.14 5.14 0 01-4.17-1.98 4.87 4.87 0 01-1.16-3.15V30.4v-7.84a5.3 5.3 0 015.46-5.45c8.92-.02 17.84-.02 26.75-.02h12.2a5.2 5.2 0 014.94 3.13c.3.63.48 1.3.48 2.01V45.9zM15.6 31.44h4.05c.76 0 1.2-.41 1.21-1.18.02-1.87.02-3.73 0-5.6 0-.75-.48-1.22-1.22-1.22h-8.06c-.76 0-1.24.5-1.24 1.27v5.5c0 .78.46 1.23 1.24 1.23h4.02zm1.55 10.6h-.24c-.06.12-.17.26-.32.4-.15.13-.33.25-.54.35v.36a2.37 2.37 0 00.73-.45v2.36h.37v-3.03zm2.84 2.66h-1.45c.04-.07.1-.14.15-.2.07-.07.2-.2.43-.38.26-.23.44-.4.56-.53.11-.13.2-.25.24-.37a.91.91 0 00.07-.35.79.79 0 00-.25-.6.94.94 0 00-.67-.24c-.28 0-.5.08-.67.22a.94.94 0 00-.3.65l.38.04c0-.19.06-.34.16-.44.1-.1.25-.16.42-.16.17 0 .3.05.4.15.1.1.16.22.16.37 0 .14-.06.29-.17.44-.11.16-.33.37-.65.64-.21.17-.37.33-.48.46a1.4 1.4 0 00-.24.4.68.68 0 00-.04.25h1.96v-.35zm2.34-.53c0-.2-.05-.36-.15-.49a.69.69 0 00-.4-.26.68.68 0 00.3-.25c.07-.1.1-.23.1-.36a.76.76 0 00-.42-.67.97.97 0 00-.45-.1.86.86 0 00-.58.2.96.96 0 00-.3.57l.35.07a.7.7 0 01.19-.41c.09-.1.2-.14.35-.14.14 0 .26.05.35.14.09.09.13.2.13.33 0 .18-.06.3-.18.38a.76.76 0 01-.42.13l-.06-.01-.04.32.25-.04c.17 0 .31.06.42.17.11.1.16.25.16.42a.6.6 0 01-.6.63.54.54 0 01-.37-.14.82.82 0 01-.22-.45l-.36.05c.02.24.12.45.3.6.17.17.38.24.64.24.3 0 .53-.09.72-.27.2-.18.29-.4.29-.66zM24.6 44h-.4v-1.96h-.3L22.56 44v.34h1.28v.72h.37v-.72h.4V44zm3.48.03a.98.98 0 00-.26-.7.88.88 0 00-.65-.27c-.2 0-.39.06-.56.19l.15-.81h1.19v-.35h-1.48l-.28 1.54.34.05a.62.62 0 01.54-.3.6.6 0 01.46.19c.11.12.17.29.17.5 0 .22-.06.4-.18.53a.57.57 0 01-.45.2.53.53 0 01-.37-.14.7.7 0 01-.2-.43l-.38.04c.03.25.12.45.3.6.16.16.38.24.65.24.33 0 .59-.12.78-.37.16-.2.23-.43.23-.7zm2.28.05a.98.98 0 00-.25-.7.82.82 0 00-.62-.28.83.83 0 00-.72.4c0-.3.04-.53.1-.7a.84.84 0 01.27-.36.5.5 0 01.3-.1c.15 0 .27.05.37.16.06.06.1.17.14.31l.36-.03a.86.86 0 00-.27-.55.83.83 0 00-.57-.2.9.9 0 00-.75.35c-.2.26-.31.69-.31 1.27 0 .52.1.9.28 1.12.2.22.44.34.74.34a.87.87 0 00.8-.5c.1-.17.13-.34.13-.53zm2.3-2h-1.91v.36h1.45a4.68 4.68 0 00-1.04 2.62h.38a5.1 5.1 0 011.13-2.68v-.3zM35 44.2a.81.81 0 00-.15-.48.78.78 0 00-.41-.3.7.7 0 00.33-.23.6.6 0 00.1-.37c0-.22-.08-.4-.23-.56a.86.86 0 00-.63-.22.86.86 0 00-.62.22.73.73 0 00-.23.55c0 .15.04.27.11.38.07.1.19.18.34.24a.72.72 0 00-.42.27.8.8 0 00-.15.49c0 .26.1.48.27.66.18.18.42.26.71.26.3 0 .53-.08.7-.26a.9.9 0 00.28-.65zm3.41.5h-1.45c.04-.07.1-.14.15-.2.06-.07.2-.2.42-.38.26-.23.45-.4.57-.53.1-.13.19-.25.24-.37a.91.91 0 00.07-.35.79.79 0 00-.25-.6.94.94 0 00-.67-.24c-.28 0-.5.08-.67.22a.94.94 0 00-.3.65l.38.04c0-.19.05-.34.16-.44.1-.1.24-.16.42-.16.17 0 .3.05.4.15.1.1.16.22.16.37 0 .14-.06.29-.17.44-.11.16-.33.37-.66.64-.2.17-.36.33-.47.46a1.4 1.4 0 00-.24.4.68.68 0 00-.04.25h1.96v-.35zm2.34-.53c0-.2-.05-.36-.15-.49a.69.69 0 00-.4-.26.68.68 0 00.3-.25c.06-.1.1-.23.1-.36a.76.76 0 00-.42-.67.97.97 0 00-.45-.1.86.86 0 00-.59.2.96.96 0 00-.3.57l.36.07a.7.7 0 01.18-.41c.1-.1.22-.14.36-.14.14 0 .26.05.35.14.09.09.13.2.13.33 0 .18-.06.3-.18.38a.76.76 0 01-.42.13l-.06-.01-.04.32.25-.04a.57.57 0 01.58.59.61.61 0 01-.6.63.54.54 0 01-.38-.14.82.82 0 01-.2-.45l-.37.05c.02.24.12.45.3.6.16.17.38.24.64.24.29 0 .53-.09.72-.27.2-.18.29-.4.29-.66zm2.29-.17h-.4v-1.96h-.3L40.98 44v.34h1.28v.72h.37v-.72h.4V44zm2.31-1.92h-1.92v.36h1.46a4.68 4.68 0 00-1.04 2.62h.37a5.1 5.1 0 011.13-2.68v-.3zm3.46 0h-1.92v.36h1.45a4.67 4.67 0 00-1.04 2.62h.37a5.1 5.1 0 011.13-2.68v-.3zm2.3 2a.98.98 0 00-.26-.7.82.82 0 00-.62-.28.83.83 0 00-.72.4c0-.3.04-.53.1-.7a.84.84 0 01.27-.36.5.5 0 01.3-.1c.15 0 .27.05.37.16.06.06.1.17.14.31l.36-.03a.86.86 0 00-.27-.55.83.83 0 00-.57-.2.9.9 0 00-.75.35c-.21.26-.32.69-.32 1.27 0 .52.1.9.3 1.12.18.23.43.34.73.34a.87.87 0 00.8-.5c.1-.17.13-.34.13-.53zm2.3.09c0-.2-.05-.36-.15-.49a.69.69 0 00-.4-.26.68.68 0 00.3-.25c.07-.1.1-.23.1-.36a.76.76 0 00-.42-.67.97.97 0 00-.44-.1.86.86 0 00-.6.2.96.96 0 00-.3.57l.37.07a.7.7 0 01.18-.41c.1-.1.21-.14.35-.14.14 0 .26.05.35.14.09.09.14.2.14.33 0 .18-.07.3-.2.38a.76.76 0 01-.41.13l-.06-.01-.04.32c.1-.02.19-.04.26-.04a.57.57 0 01.58.59.61.61 0 01-.61.63.54.54 0 01-.37-.14.82.82 0 01-.21-.45l-.37.05a.92.92 0 00.94.85c.3 0 .53-.1.72-.28.2-.18.29-.4.29-.66zm1.73-2.14h-.23c-.07.13-.17.27-.33.4-.15.14-.33.26-.53.36v.36a2.37 2.37 0 00.73-.45v2.36h.36v-3.03zM23.84 44v-1.36L22.92 44h.92zM34 43.58a.57.57 0 00-.42.17.6.6 0 00-.17.44c0 .1.02.2.07.3.05.1.12.18.22.23.1.05.2.08.32.08.17 0 .31-.06.43-.17a.59.59 0 00.17-.43.6.6 0 00-.18-.45.61.61 0 00-.44-.17zm16.15-.15c-.17 0-.3.06-.42.18a.65.65 0 00-.17.47c0 .13.02.25.08.37.05.11.12.2.22.26s.2.1.3.1a.5.5 0 00.4-.2c.1-.12.16-.3.16-.51a.7.7 0 00-.16-.5.54.54 0 00-.41-.17z"/></svg>