<svg width="27" height="21" viewBox="0 0 27 21" fill="none" xmlns="http://www.w3.org/2000/svg">
<g clip-path="url(#clip0)">
<path d="M23.1707 15.2174C23.1707 16.1839 23.1707 17.1504 23.1707 18.1169C23.1707 18.6907 23.156 19.2664 23.175 19.8402C23.196 20.5106 22.646 21.0041 21.9948 21C19.9506 20.9877 17.9043 20.9959 15.8581 20.9959C15.6368 20.9959 15.6368 20.9938 15.6368 20.7779C15.6368 18.8264 15.6368 16.8748 15.6368 14.9213C15.6368 14.728 15.6368 14.728 15.4429 14.728C14.1637 14.728 12.8824 14.728 11.6032 14.728C11.3883 14.728 11.3883 14.728 11.3883 14.9336C11.3883 16.881 11.3883 18.8284 11.3883 20.7738C11.3883 20.9938 11.3883 20.9938 11.167 20.9938C9.12703 20.9938 7.08706 20.9856 5.0471 21C4.36009 21.0041 3.82481 20.4797 3.8501 19.8237C3.86907 19.3466 3.8501 18.8675 3.85431 18.3884C3.85642 18.1066 3.87328 17.827 3.87539 17.5452C3.8775 17.3663 3.85431 17.1854 3.85431 17.0044C3.85221 15.4189 3.85431 13.8334 3.8501 12.2459C3.8501 12.0752 3.90068 11.9621 4.04187 11.849C5.29367 10.8516 6.53703 9.84606 7.78251 8.84254C8.85517 7.97885 9.92995 7.11516 11.0026 6.25147C11.7971 5.61193 12.5916 4.9765 13.3819 4.33284C13.483 4.25059 13.5462 4.25264 13.6453 4.33284C14.7854 5.25411 15.9297 6.17332 17.0719 7.09254C18.1593 7.96856 19.2468 8.84871 20.3363 9.72473C21.2214 10.4383 22.1086 11.1498 22.9979 11.8572C23.1202 11.9539 23.1792 12.0546 23.1771 12.213C23.1665 13.2165 23.1707 14.2159 23.1707 15.2174ZM14.8823 3.95446C16.1468 4.98267 17.4112 6.00881 18.6757 7.03701C19.997 8.11046 21.3183 9.18596 22.6397 10.2594C23.4405 10.9113 24.2413 11.5673 25.0442 12.2171C25.3371 12.4536 25.6511 12.4186 25.8956 12.1369C26.2201 11.7626 26.532 11.3781 26.865 11.012C27.0505 10.8085 27.0715 10.3869 26.7955 10.1936C26.6269 10.0764 26.473 9.93449 26.3129 9.80493C25.3414 9.01939 24.372 8.22973 23.3941 7.45035C23.2319 7.3208 23.1623 7.18507 23.1623 6.97121C23.1728 4.8634 23.1686 2.75764 23.1686 0.649824C23.1686 0.277615 22.9516 0.0534673 22.5701 0.0514109C21.5249 0.0472981 20.4796 0.0472981 19.4343 0.0514109C19.2573 0.0514109 19.0929 0.102821 18.9686 0.244713C18.8527 0.380435 18.8506 0.540835 18.8506 0.701234C18.8485 1.64307 18.8506 2.5849 18.8485 3.52673C18.8485 3.58637 18.84 3.64806 18.8358 3.72209C18.7979 3.70153 18.7789 3.69536 18.7642 3.68302C17.5398 2.68361 16.3133 1.69036 15.0973 0.682727C14.699 0.351646 14.288 0.0678621 13.7549 0.0143956C13.2702 -0.0329016 12.8002 0.0431853 12.3998 0.324913C12.0184 0.594301 11.6622 0.898649 11.2998 1.19271C10.0416 2.21269 8.78774 3.23267 7.53173 4.2547C6.2715 5.27879 5.01128 6.30288 3.75105 7.32697C2.58566 8.27497 1.42238 9.22091 0.256983 10.1689C-0.0570194 10.4239 -0.0844156 10.7344 0.181117 11.0449C0.48669 11.4028 0.792263 11.7585 1.09994 12.1163C1.36969 12.4289 1.69423 12.4577 2.01245 12.1965C3.03875 11.3596 4.06084 10.5206 5.08925 9.68566C6.40637 8.61427 7.72771 7.547 9.04484 6.47356C10.5348 5.26439 12.0163 4.05317 13.5125 2.83372C13.9762 3.21416 14.4271 3.58431 14.8823 3.95446Z" fill="black"/>
</g>
<defs>
<clipPath id="clip0">
<rect width="27" height="21" fill="white"/>
</clipPath>
</defs>
</svg>
