<svg width="30" height="30" viewBox="0 0 30 30" fill="none" xmlns="http://www.w3.org/2000/svg">
<g clip-path="url(#clip0)">
<path d="M23.4523 11.7092C23.3689 12.4472 23.331 13.1928 23.1945 13.9181C22.9013 15.4573 22.3125 16.8903 21.4356 18.1919C21.3345 18.3436 21.3648 18.4169 21.4786 18.5281C22.641 19.6831 23.7985 20.8457 24.9585 22.0032C26.3737 23.416 27.7864 24.8313 29.2016 26.2442C29.5276 26.5702 29.8106 26.9164 29.9319 27.3815C30.1568 28.2408 29.846 29.1001 29.1283 29.6005C28.2691 30.202 27.2228 30.1085 26.4773 29.3705C25.1076 28.0133 23.7479 26.6485 22.3833 25.2863C21.1071 24.0099 19.8283 22.7387 18.5571 21.4573C18.4308 21.3284 18.3449 21.3208 18.1958 21.4219C17.195 22.0992 16.1083 22.6073 14.9458 22.9282C14.3772 23.0849 13.7859 23.1582 13.2071 23.2694C12.3428 23.4362 11.4684 23.4185 10.6016 23.3351C9.82831 23.2593 9.0651 23.1077 8.31706 22.8752C7.42244 22.5997 6.57331 22.2357 5.76967 21.7606C4.04109 20.7395 2.66379 19.3596 1.64028 17.6384C1.03376 16.6148 0.566236 15.5255 0.341318 14.3503C0.227595 13.7564 0.15178 13.1549 0.0734379 12.5533C0.0304761 12.2197 -0.00995863 11.8785 0.00520438 11.5449C0.0683836 10.0992 0.313519 8.6915 0.85686 7.33682C1.55941 5.58788 2.62588 4.10683 4.02846 2.86842C5.07723 1.94592 6.26753 1.24331 7.58165 0.750471C8.41309 0.439603 9.26222 0.196974 10.1442 0.108516C10.8973 0.035222 11.6605 -0.0304899 12.4136 0.0150029C14.0765 0.116098 15.6661 0.545753 17.1445 1.32924C18.5319 2.06471 19.7298 3.04028 20.7356 4.25342C21.4786 5.15064 22.0825 6.13379 22.5122 7.21045C22.7775 7.87515 22.9519 8.57777 23.1364 9.27027C23.3436 10.0664 23.4093 10.8802 23.4523 11.7092ZM11.7212 2.79512C6.76538 2.75468 2.84574 6.78838 2.80278 11.6005C2.75476 16.6224 6.82098 20.5904 11.6984 20.603C16.5961 20.6157 20.6092 16.5845 20.6168 11.6991C20.6193 6.82124 16.5986 2.74205 11.7212 2.79512Z" fill="white"/>
</g>
<defs>
<clipPath id="clip0">
<rect width="30" height="30" fill="white"/>
</clipPath>
</defs>
</svg>
