<svg width="12" height="17" viewBox="0 0 12 17" fill="none" xmlns="http://www.w3.org/2000/svg">
<path d="M11.9988 5.91569C12.0167 6.59451 11.8391 7.20126 11.6243 7.79571C11.0151 9.48309 10.1389 11.0365 9.17626 12.5401C8.42283 13.717 7.63395 14.8722 6.84191 16.0238C6.43273 16.6189 5.57612 16.6063 5.15642 16.0206C4.03942 14.4619 2.97928 12.8656 2.02196 11.2028C1.47206 10.2473 0.95795 9.27182 0.552983 8.24427C0.250134 7.47616 -0.0397296 6.69259 0.00448694 5.85276C0.120643 3.64862 1.10499 1.94753 3.00841 0.802577C3.80395 0.324135 4.66933 0.0523964 5.59121 0.00880581C7.92662 -0.101577 9.7588 0.82613 11.0558 2.77294C11.7043 3.746 11.9942 4.80799 11.9988 5.91569ZM9.62018 5.79089C9.62264 3.78186 8.01856 2.15916 6.02426 2.15389C4.01837 2.14861 2.39394 3.76217 2.38481 5.76875C2.37534 7.76899 4.00258 9.40505 6.00145 9.40575C8.00277 9.4061 9.61773 7.79325 9.62018 5.79089Z" fill="black"/>
<path d="M7.94976 5.78531C7.94625 6.85996 7.06507 7.7381 5.99651 7.73212C4.92654 7.72615 4.04747 6.83465 4.0587 5.76668C4.06993 4.69027 4.95005 3.82303 6.02318 3.83111C7.08823 3.8392 7.95326 4.71628 7.94976 5.78531Z" fill="black"/>
</svg>
