<svg width="22" height="22" viewBox="0 0 22 22" fill="none" xmlns="http://www.w3.org/2000/svg">
<g clip-path="url(#clip0)">
<path d="M0 0.548574C0.0229181 0.483453 0.0397696 0.415298 0.0698776 0.354144C0.168291 0.153879 0.323325 0.0318061 0.54217 0.00799839C0.601487 0.00146293 0.661703 0.00146293 0.72147 0.00146293C7.54049 0.00122952 14.3595 0.00122952 21.1785 0.00122952C21.2534 0.00122952 21.3284 -0.00320526 21.4028 0.00192975C21.6421 0.0182684 21.8223 0.13614 21.9294 0.359279C22.0411 0.591755 22.018 0.820263 21.876 1.03103C21.6189 1.41266 21.3572 1.79101 21.0972 2.17077C18.8023 5.52486 16.5073 8.87895 14.2108 12.2319C14.16 12.3059 14.1405 12.3782 14.1405 12.4676C14.1422 15.374 14.1418 18.2804 14.1418 21.1869C14.1418 21.6915 14.0366 21.8432 13.5796 21.9994C13.5423 21.9994 13.5048 21.9994 13.4675 21.9994C12.9669 21.7685 12.4641 21.5428 11.9662 21.3059C10.7448 20.7252 9.52695 20.1356 8.30421 19.5581C7.99054 19.4099 7.84966 19.1809 7.85056 18.8217C7.85663 16.7077 7.85281 14.594 7.85528 12.48C7.85551 12.3771 7.82832 12.297 7.77125 12.2137C5.22892 8.4992 2.68793 4.78332 0.149192 1.06581C0.0860551 0.973379 0.0492064 0.861343 0 0.758409C0 0.68862 0 0.618597 0 0.548574ZM1.83704 1.29922C1.86198 1.3382 1.87569 1.36084 1.89074 1.38278C4.22232 4.79102 6.55277 8.19997 8.88839 11.6054C9.03466 11.8185 9.10162 12.0363 9.10095 12.2965C9.096 14.3249 9.09892 16.3534 9.09623 18.3817C9.096 18.4728 9.12139 18.5164 9.20273 18.5549C10.4037 19.1259 11.6028 19.7012 12.8022 20.2754C12.8334 20.2903 12.8656 20.3041 12.9071 20.3228C12.9071 20.26 12.9071 20.2175 12.9071 20.1748C12.9071 17.517 12.9078 14.8591 12.9056 12.2011C12.9053 12.0062 12.9575 11.8379 13.0658 11.6801C13.9333 10.4153 14.7983 9.14901 15.6643 7.883C17.1362 5.73096 18.6081 3.57893 20.08 1.42666C20.1068 1.38768 20.1311 1.34707 20.1616 1.29922C14.0468 1.29922 7.95055 1.29922 1.83704 1.29922Z" fill="white"/>
<path d="M18.1314 13.4649C18.6955 13.4649 19.26 13.464 19.8242 13.4652C20.0888 13.4656 20.2693 13.6407 20.2704 13.8935C20.2715 14.146 20.0886 14.3276 19.8284 14.3276C18.6924 14.3283 17.5564 14.3281 16.4204 14.3279C16.2393 14.3279 16.1031 14.2466 16.0238 14.0765C15.9478 13.9136 15.9732 13.7579 16.0809 13.6197C16.1656 13.5107 16.2802 13.464 16.4159 13.4642C16.9879 13.4659 17.5598 13.4649 18.1314 13.4649Z" fill="white"/>
<path d="M18.1322 16.1659C18.7038 16.1659 19.2757 16.1631 19.8473 16.1671C20.1108 16.169 20.2829 16.3639 20.2697 16.629C20.2582 16.858 20.0737 17.0272 19.8275 17.0286C19.45 17.0305 19.0728 17.0291 18.6953 17.0291C17.9406 17.0291 17.1856 17.0293 16.4309 17.0288C16.2518 17.0288 16.1112 16.9555 16.0283 16.7863C15.9519 16.6302 15.9692 16.4773 16.0676 16.337C16.1588 16.2068 16.2882 16.1636 16.4397 16.1641C17.0038 16.1662 17.568 16.165 18.1325 16.165C18.1322 16.1655 18.1322 16.1657 18.1322 16.1659Z" fill="white"/>
<path d="M18.1363 18.8646C18.7012 18.8646 19.266 18.8625 19.8309 18.8655C20.1504 18.8674 20.3555 19.1587 20.2445 19.4491C20.1866 19.6005 20.0787 19.6951 19.9199 19.7189C19.8792 19.7249 19.8381 19.7291 19.797 19.7291C18.6859 19.7296 17.575 19.7301 16.4639 19.7291C16.2038 19.7289 16.0467 19.6122 15.9935 19.3874C15.9391 19.1578 16.093 18.9134 16.3188 18.8749C16.37 18.8662 16.4231 18.8651 16.4752 18.8651C17.029 18.8644 17.5827 18.8646 18.1363 18.8646Z" fill="white"/>
</g>
<defs>
<clipPath id="clip0">
<rect width="22" height="22" fill="white"/>
</clipPath>
</defs>
</svg>
