<svg fill="none" viewBox="0 0 182 51"><defs/><path fill="#5D3C29" d="M161.58 38.6H20.04v11.5h141.54V38.6z"/><path fill="#FFED00" d="M155.2 42.84c-.24.74-.47 1.35-.67 1.85l-.24.64h1.85l-.24-.64c-.2-.5-.42-1.12-.68-1.85h-.01zm1.36 3.57h-2.68l-.68 1.8h-1.38l2.8-7.08h1.19l2.8 7.08h-1.36l-.7-1.8zm-10.32-2.36c.35 0 .61-.04.79-.1.2-.09.33-.2.42-.35a.96.96 0 00-.02-.97.89.89 0 00-.49-.33 2.75 2.75 0 00-.8-.08h-1.06v1.83h1.16zm-1.17 1.08v2h.85l.59-.02a2.44 2.44 0 00.87-.22.87.87 0 00.45-.5c.03-.1.04-.2.04-.31 0-.2-.05-.38-.16-.52a.92.92 0 00-.51-.33 1.9 1.9 0 00-.37-.07c-.13-.02-.3-.02-.53-.02h-1.23zm3.83-2.11c0 .3-.08.58-.2.84-.14.26-.37.47-.7.64v.02a2 2 0 01.86.56 1.5 1.5 0 01.34.98c0 .17-.03.35-.08.56-.06.2-.15.39-.29.57-.14.18-.32.35-.55.5-.23.15-.51.28-.87.38l-.28.05a3.65 3.65 0 01-.78.07l-.52.01h-2.06v-7.07h2.46c.52 0 .95.05 1.27.16.24.08.44.17.62.3.18.12.32.26.44.42a1.7 1.7 0 01.34 1zm-10.14-1.88h1.36v7.08h-1.3v-3.26c0-.4.02-1.05.06-1.96h-.02c-.24.4-.66 1.05-1.27 1.91l-2.3 3.3h-1.37v-7.07h1.3v3.26c0 .51-.02 1.17-.06 1.95h.01c.23-.37.64-1 1.25-1.87l2.34-3.34zm-8.5 0v7.08h-1.3v-5.97h-3.02v5.97h-1.3v-7.08h5.62zm-15.33 7.07h-1.3v-6h-2.28v-1.08h5.86v1.09h-2.27v5.99h-.01zm-9.73-1.09h3.48v1.09h-4.78v-7.08h4.59v1.09h-3.3v1.83h2.83v1.08h-2.82v2zm-10.12 1.09v-7.08h1.3v3.22h.01l2.68-3.22h1.6l-2.95 3.5 3.2 3.57h-1.67L96.4 45h-.02v3.2h-1.3zm-7.19-3.86l.29.03h.35c.35 0 .64-.02.88-.08s.42-.14.56-.23c.15-.1.25-.23.32-.37.06-.14.1-.3.1-.47 0-.2-.05-.39-.15-.54a.95.95 0 00-.5-.36 1.95 1.95 0 00-.45-.08c-.18-.02-.4-.03-.67-.03h-.73v2.13zm.66 1.12h-.34c-.12 0-.23-.02-.32-.03v2.77h-1.3v-7.08h2.04c.34 0 .64.02.9.05.26.03.48.07.68.13.48.15.86.38 1.12.71.26.32.4.74.4 1.24a1.85 1.85 0 01-.84 1.62c-.27.2-.6.33-1 .43a5 5 0 01-1.34.16zm-8.34-2.63c-.25.74-.48 1.35-.68 1.85l-.24.64h1.85l-.24-.64c-.2-.5-.42-1.12-.67-1.85h-.02zm1.35 3.57h-2.68l-.68 1.8h-1.38l2.81-7.08h1.18l2.81 7.08h-1.37l-.7-1.8zm-11.34-.1c.15-.55.34-1.15.58-1.79L72 41.13h1.83v7.08h-1.3v-3.58c0-.53.02-1.14.06-1.83h-.04a46.3 46.3 0 01-.48 1.4l-1.45 4h-.84l-1.46-4-.25-.73-.22-.67h-.04c.04.65.06 1.26.06 1.82v3.59h-1.3v-7.08h1.8l1.22 3.37c.2.56.4 1.17.58 1.8h.04v.02zm-10.83-1.96a6.47 6.47 0 00.64.04c.35 0 .64-.03.87-.1.24-.05.43-.13.57-.22.15-.1.25-.23.31-.37.07-.14.1-.3.1-.47 0-.2-.04-.39-.14-.54a.95.95 0 00-.5-.36 1.95 1.95 0 00-.45-.08c-.18-.02-.4-.03-.67-.03h-.73v2.13zm.67 1.12h-.35c-.11 0-.22-.02-.32-.03v2.77h-1.3v-7.08h2.05c.34 0 .64.02.9.05.26.03.48.07.68.13.48.15.86.38 1.12.71.26.32.4.74.4 1.24a1.85 1.85 0 01-.84 1.62c-.27.2-.6.33-1 .43-.39.1-.83.16-1.34.16zm-8.79 1.65h3.48v1.09h-4.78v-7.08h4.59v1.09h-3.29v1.83h2.83v1.08h-2.83v2zm-4.97-5.98v7.08H45v-5.97h-3.02v5.97h-1.3v-7.08h5.62zm-11.13 5.4c-.16.34-.33.62-.5.84a2.19 2.19 0 01-1.23.85c-.24.07-.51.1-.8.1l-.39-.02c-.14-.01-.27-.04-.4-.07v-1.1a2.32 2.32 0 001.16.04c.13-.04.25-.1.36-.19.12-.09.22-.2.33-.35.1-.16.2-.35.31-.58l-2.75-4.93h1.44l1.99 3.61 1.66-3.61h1.4l-2.58 5.42zm-8.03-4.45c-.35 0-.67.06-.98.18-.3.12-.55.29-.76.5-.21.23-.38.5-.5.83-.12.33-.18.7-.18 1.12 0 .42.06.79.16 1.1.11.33.27.58.48.8.2.21.45.37.74.48.3.1.63.16 1 .16a5.14 5.14 0 001.6-.24v1.1a6.65 6.65 0 01-1.68.23c-.6 0-1.13-.09-1.58-.26a3.06 3.06 0 01-1.83-1.85 4.37 4.37 0 01-.24-1.44c0-.54.08-1.04.25-1.5a3.28 3.28 0 011.87-2 4 4 0 011.57-.29 5.2 5.2 0 011.58.23v1.1a4.96 4.96 0 00-1.5-.25z"/><path fill="#5D3C29" fill-rule="evenodd" d="M100.5 23.1v1.6l2.5.03c.9 0 1.55-.15 1.56-.76 0-.6-.62-.88-1.42-.88l-2.64.01zm-.01-12.24l-.01 1.13 2.37.02c.58.01 1.05-.16 1.06-.59 0-.42-.53-.56-1.13-.56h-2.3zM63.2 14.5c.38-.55.79-1.1 1.26-1.6 2.61-2.86 6.01-4.14 9.86-4.14a12 12 0 018.93 3.83c2.4 2.5 3.64 5.54 3.64 9 0 1.28-.2 2.52-1.07 3.5-.45.52-1.01.86-1.62 1.09l.6 1.14c.34.68.72 1.37 1 2.07.24.6.4 1.1.33 1.77a3.1 3.1 0 01-.93 1.86c-2.62 2.8-6.43 3.63-10.13 3.63-3.81 0-7.35-1.09-10.15-3.73a12.59 12.59 0 01-3.6-6.15c-.54.89-1.11 1.76-1.7 2.62a65.84 65.84 0 01-3.44 4.68c-.33.42-.63.79-1.06 1.12-.59.44-1.22.64-1.92.78-.98.2-2.05.24-3.05.24-.93 0-1.88-.04-2.8-.13a4.35 4.35 0 01-2.11-.74c-.46-.32-.78-.7-1.15-1.1a24.1 24.1 0 01-1.63-2.05c-.64-.88-1.26-1.77-1.87-2.66a64.54 64.54 0 01-2.2-3.38 20 20 0 01-.86-1.56c0 1.24.04 2.48.06 3.72.04 1.5.06 2.98.07 4.48 0 .68-.01 1.2-.37 1.82A2.84 2.84 0 0135.22 36c-.56.1-1.15.14-1.7.17a40.89 40.89 0 01-4.18 0A14 14 0 0127.6 36a3.02 3.02 0 01-1.81-.9c-.08.12-.17.22-.28.34-.78.82-1.78.97-2.85.97-3.96 0-7.93-.18-11.89-.22-2.6-.01-5.2-.01-7.81-.16h-.13L2.7 36a2.92 2.92 0 01-2.52-2.94c0-2.44.03-4.88.07-7.33a248.16 248.16 0 00-.09-14.97C.1 8.39.02 6 0 3.62c0-.34 0-.67.04-1.01.08-.7.35-1.33.9-1.8A2.8 2.8 0 012.82.15c.3 0 .63.02.95.05 2.15.17 4.2.2 6.36-.03.38-.04.77-.08 1.17-.05.77.04 1.48.34 1.99.94.51.62.64 1.34.58 2.13l-.09.94c-.21 3.6-.42 7.21-.55 10.83-.1 3.15-.16 6.32-.04 9.47 3.42-.07 6.83-.37 10.25-.4h.41c.47 0 .93.07 1.34.25v-.78c0-1.81-.01-3.63-.1-5.45a47.52 47.52 0 00-.34-4.06c-.14-1.07.04-2.14.84-2.93.16-.14.3-.27.48-.36a5.88 5.88 0 01-1.34-3.82c0-3.7 3.18-6.16 6.72-6.16 4.14 0 7.23 3.23 6.57 7.43a5.6 5.6 0 01-1.18 2.65l.2.15.2.19a3.02 3.02 0 012.32-.93c2.2 0 4.38.12 6.57.13.74 0 1.36.1 1.98.57a2.86 2.86 0 011.08 2.39c0 1.15-.06 2.31-.1 3.47-.06 1.28-.07 2.55.04 3.83.06.2.18.47.26.65.2.42.41.83.64 1.23a14.16 14.16 0 00.85-1.73c.02-1.38 0-2.75-.02-4.13l-.07-3.27c-.02-.85.2-1.65.84-2.25a2.94 2.94 0 012.07-.76c2.08 0 4.16-.13 6.24-.13 1.4 0 2.52.88 2.9 2.21.23.61.31 1.4.36 2.09zm53.5 15.1a10.29 10.29 0 01-3.63 4.25c-3.39 2.24-7.86 2.4-11.8 2.41h-.98c-1.86 0-3.71-.06-5.57-.13-1.49-.05-2.96-.12-4.44-.16-.98-.03-1.87-.18-2.58-.94-.78-.84-.78-1.78-.76-2.83.06-2.2.15-4.4.28-6.61.16-2.76.22-5.51.2-8.27 0-2.85-.1-5.7-.2-8.53l-.2-4.56c-.02-.38-.07-.77-.08-1.15-.02-.78.14-1.5.69-2.1.54-.6 1.23-.84 2.01-.9.4-.02.8-.01 1.2-.02 4.52-.07 9.06-.13 13.58.05 3.21.12 6.73.61 9.34 2.67 2.14 1.67 3.21 4.01 3.56 6.67.38 2.92-.62 5.24-2.24 7.38.3.32.59.65.83 1.01.58-1.79 1.5-3.45 2.85-4.92 2.61-2.87 6.02-4.15 9.86-4.15a12 12 0 018.94 3.84c.9.94 1.64 1.96 2.2 3.05.52-.97 1.16-1.89 1.94-2.74 2.62-2.87 6.02-4.15 9.87-4.15a12 12 0 018.93 3.84c.32.33.62.68.9 1.04-.04-.77.13-1.5.66-2.11a3.08 3.08 0 012.1-.97c1.94-.23 3.86-.6 5.79-.99 1.1-.21 2.15-.28 3.08.47.3.25.53.54.69.85a10.4 10.4 0 014.4-1.03c1.07 0 2.07.14 2.81 1.01.65.76.73 1.61.67 2.54-.03.45-.08.9-.13 1.34-.06.53-.12 1.09-.14 1.63l.02 1.61c.02.6.04 1.2.04 1.8 0 1.89-1.37 3.15-3.23 3.15-.46 0-.93-.04-1.4-.07-.34-.03-.7-.05-1.05-.05-.2 0-.59.01-.88.06a5.7 5.7 0 00-.04.61l.03 2.88c.02.99.02 1.97.02 2.96 0 .6.05 1.2.09 1.8.04.68.08 1.37.08 2.05 0 .54-.14 1.06-.43 1.53a3.01 3.01 0 01-2.37 1.33c-1.14.1-2.34.1-3.49.1-1.2 0-2.45-.02-3.64-.15a2.96 2.96 0 01-2.76-2.87c-2.61 2.72-6.37 3.52-10.02 3.52-3.81 0-7.35-1.08-10.15-3.72a12.58 12.58 0 01-1.72-2l-.02.24a3.1 3.1 0 01-.94 1.86c-2.62 2.8-6.43 3.62-10.13 3.62-3.81 0-7.35-1.08-10.15-3.72-1.03-1-1.86-2.11-2.48-3.32z" clip-rule="evenodd"/><path fill="#FFED00" d="M101.27 34c-4.09.02-8.32-.23-10.92-.3-1.15-.02-1.16-.16-1.12-1.44.04-1.57.11-3.75.26-6.54.33-5.88.23-11.11 0-17.01l-.2-4.6c-.1-1.94-.36-1.75 1.6-1.79 3.12-.04 8.72-.13 13.45.05 5.18.2 9.96 1.38 10.73 7.36.38 2.84-.98 4.97-3.17 7.32a8.57 8.57 0 013.56 9.22c-1.61 7.25-7.9 7.71-14.19 7.73zM98.23 8.65l-.03 5.5c2.59.06 7.98.97 7.94-2.88-.04-3.43-5.38-2.6-7.91-2.62zm0 12.25v5.92c3.53.16 8.36 1.1 8.6-2.71.23-4.2-5-3.2-8.6-3.21zm-13.6.7c0 1.7-.42 2.49-2.07 2.64l-11.9 1.1c.45 2.13 2.93 2.88 4.85 2.88 1.82 0 3.2-.6 4.74-1.5 1.3-.77 1.36-.66 2.54 1.66.41.8.74 1.41.92 1.88.24.6.32.74-.14 1.24-1.82 1.94-4.64 2.9-8.47 2.9-3.55 0-6.42-1.03-8.59-3.1-2.24-2.1-3.35-4.91-3.35-8.43 0-3.43 1-6.24 3-8.42 2.07-2.27 4.8-3.4 8.2-3.4a9.74 9.74 0 017.29 3.13 10.39 10.39 0 012.98 7.43zm-11.16-4.83c-2.28 0-3.34 2.27-3.14 4.3l6.46-.52c-.13-2-1.06-3.78-3.32-3.78zm65.46 4.84c0 1.69-.43 2.48-2.08 2.63l-11.9 1.1c.45 2.13 2.93 2.88 4.85 2.88 1.82 0 3.2-.6 4.74-1.5 1.3-.77 1.36-.66 2.55 1.66.4.8.73 1.41.91 1.88.24.6.32.74-.14 1.24-1.82 1.94-4.64 2.9-8.47 2.9-3.55 0-6.42-1.03-8.59-3.1-2.24-2.1-3.35-4.91-3.35-8.43 0-3.43 1-6.24 3-8.42 2.07-2.27 4.8-3.4 8.2-3.4a9.74 9.74 0 017.29 3.13 10.35 10.35 0 012.99 7.43zm-11.17-4.84c-2.28 0-3.34 2.27-3.14 4.3l6.46-.52c-.12-2-1.05-3.78-3.32-3.78zm34.11 4.84c0 1.69-.43 2.48-2.07 2.63l-11.9 1.1c.44 2.13 2.92 2.88 4.84 2.88 1.83 0 3.21-.6 4.75-1.5 1.3-.77 1.36-.66 2.54 1.66.41.8.74 1.41.92 1.88.24.6.32.74-.14 1.24-1.82 1.94-4.64 2.9-8.47 2.9-3.55 0-6.42-1.03-8.59-3.1-2.24-2.1-3.35-4.91-3.35-8.43 0-3.43 1-6.24 3-8.42 2.07-2.27 4.8-3.4 8.2-3.4a9.73 9.73 0 017.28 3.13c2 2.07 3 4.55 3 7.43zm-11.16-4.84c-2.28 0-3.34 2.27-3.14 4.3l6.45-.52c-.11-2-1.05-3.78-3.31-3.78zm28.43 3.04c0 .58-.32.87-.96.87-.28 0-.7-.02-1.24-.06-.54-.03-.95-.05-1.21-.05-1.23 0-2.07.19-2.52.58-.45.39-.67 1.17-.67 2.35 0 .64 0 1.62.02 2.93.03 1.3.03 2.28.03 2.92 0 .44.03 1.08.08 1.94a34 34 0 01.08 1.92c0 .35-.24.56-.74.6-.71.06-1.81.09-3.28.09a33.9 33.9 0 01-3.38-.13c-.5-.07-.74-.3-.74-.74 0-1.2 0-2.98.02-5.35l.03-5.36c0-3.5-.32-6.39-.96-8.65-.12-.67.14-.76.73-.83a78.7 78.7 0 005.96-1.02c1.1-.2 1.34-.15 1.44.6.07.44.13 1.14.2 2.18.16-.14.54-.5 1.97-1.27a8.57 8.57 0 014.13-1.17c1.17 0 1.28.15 1.22 1.14-.02.35-.06.76-.11 1.23-.1.85-.15 1.46-.16 1.83 0 .43 0 1 .02 1.72l.04 1.73zM22.67 34.12c-3.95 0-7.92-.18-11.87-.21-2.57-.02-5.16-.02-7.7-.16-.44-.08-.66-.3-.66-.7 0-1.62.03-4.05.08-7.3.04-3.23.07-5.67.07-7.29 0-1.73-.06-4.32-.16-7.76-.1-3.03-.15-5.39-.16-7.09-.01-1.31.02-1.22 1.34-1.13 2.35.16 4.4.2 6.78-.06 1.6-.17 1.24.04 1.15 1.56-.4 6.86-.9 14.75-.55 21.65.07 1.4.27 1.08 1.67 1.06 3.6-.05 7.21-.37 10.82-.4.44 0 1.13-.12 1.13.5 0 2.17-.13 4.09-.4 5.75-.21 1.33-.08 1.58-1.54 1.58zM35.81 7.77c-.7 4.37-8.77 4.04-8.77-.9 0-2.44 2.17-3.89 4.45-3.89 2.72 0 4.76 1.97 4.32 4.8zm-.54 15.72c0 1.1.03 2.72.07 4.87a292 292 0 01.08 4.45c0 .48.07.86-.56.95-1.37.25-5.49.25-6.86 0-.7-.12-.64-.34-.64-.96 0-1.02.02-2.57.07-4.64a244 244 0 00.07-4.67c0-4.23-.14-7.3-.46-9.8-.13-.92.16-1.27 1-1.17 2.16.26 4.35.26 6.52.07.92-.08 1.36-.1 1.2 1.02-.34 2.9-.49 6.04-.49 9.88zm25.59-.74c-.35 1.05-1.38 2.85-3.08 5.38a64.52 64.52 0 01-3.32 4.5c-.58.72-.68.92-1.67 1.12-1.4.27-3.76.23-5.18.08-.99-.1-1.2-.45-1.8-1.11-.88-.98-1.96-2.5-3.32-4.47-1.77-2.58-2.83-4.35-3.17-5.3-.85-2.32-.52-7.1-.52-9.77 0-.56.2-.72.78-.72 2.19 0 4.39.12 6.57.13.53 0 .8.02.8.68 0 2.67-.3 4.82-.03 7.61.07.77 1.57 3.64 2.58 4.7.5.52.72.5 1.21-.03.97-1.05 2.4-3.8 2.49-4.54.04-3.22-.03-4.87-.08-7.73-.01-.56.14-.7.65-.7 2.1 0 4.2-.12 6.25-.12.37 0 .62.2.72.58.4 1.4.56 8.42.12 9.7z"/></svg>